ISO-10303-21;
HEADER;
/* Generated by software containing ST-Developer
 * from STEP Tools, Inc. (www.steptools.com) 
 */
/* OPTION: using custom renumber hook */

FILE_DESCRIPTION(
/* description */ ('STEP AP242 Edition 2',
'CAx-IF Rec.Pracs.---Representation and Presentation of Product Manufa
cturing Information (PMI)---4.0---2014-10-13',
'CAx-IF Rec.Pracs.---3D Tessellated Geometry---0.4---2014-09-14','2;1',
'CAx-IF Rec.Pracs.---User Defined Attributes---1.5---2016-08-15'),
/* implementation_level */ '2;1');

FILE_NAME(
/* name */ 'End Mount - Part 1',
/* time_stamp */ '2026-10-07T20:28:41Z',
/* author */ (''),
/* organization */ (''),
/* preprocessor_version */ 'ST-DEVELOPER v20',
/* originating_system */ 'ONSHAPE BY PTC INC, 1.221',
/* authorisation */ '  ');

FILE_SCHEMA (('AP242_MANAGED_MODEL_BASED_3D_ENGINEERING_MIM_LF { 1 0 10303 442 3 1 4 }'));
ENDSEC;

DATA;
#10=SHAPE_REPRESENTATION_RELATIONSHIP('','',#255,#11);
#11=ADVANCED_BREP_SHAPE_REPRESENTATION('',(#253),#431);
#12=CONICAL_SURFACE('',#286,0.003,0.785398163397449);
#13=CONICAL_SURFACE('',#287,0.003,0.785398163397449);
#14=CONICAL_SURFACE('',#288,0.003,0.785398163397449);
#15=CONICAL_SURFACE('',#289,0.003,0.785398163397449);
#16=CIRCLE('',#259,0.014);
#17=CIRCLE('',#260,0.014);
#18=CIRCLE('',#263,0.003);
#19=CIRCLE('',#264,0.003);
#20=CIRCLE('',#266,0.003);
#21=CIRCLE('',#267,0.003);
#22=CIRCLE('',#269,0.003);
#23=CIRCLE('',#270,0.003);
#24=CIRCLE('',#272,0.003);
#25=CIRCLE('',#273,0.003);
#26=CIRCLE('',#275,0.0315);
#27=CIRCLE('',#276,0.0315);
#28=CIRCLE('',#278,0.008);
#29=CIRCLE('',#279,0.008);
#30=CIRCLE('',#281,0.006);
#31=CIRCLE('',#282,0.006);
#32=CIRCLE('',#283,0.006);
#33=CIRCLE('',#284,0.006);
#34=CYLINDRICAL_SURFACE('',#258,0.014);
#35=CYLINDRICAL_SURFACE('',#262,0.003);
#36=CYLINDRICAL_SURFACE('',#265,0.003);
#37=CYLINDRICAL_SURFACE('',#268,0.003);
#38=CYLINDRICAL_SURFACE('',#271,0.003);
#39=CYLINDRICAL_SURFACE('',#274,0.0315);
#40=CYLINDRICAL_SURFACE('',#277,0.008);
#41=ORIENTED_EDGE('',*,*,#93,.F.);
#42=ORIENTED_EDGE('',*,*,#94,.F.);
#43=ORIENTED_EDGE('',*,*,#95,.T.);
#44=ORIENTED_EDGE('',*,*,#96,.T.);
#45=ORIENTED_EDGE('',*,*,#97,.T.);
#46=ORIENTED_EDGE('',*,*,#98,.F.);
#47=ORIENTED_EDGE('',*,*,#99,.F.);
#48=ORIENTED_EDGE('',*,*,#94,.T.);
#49=ORIENTED_EDGE('',*,*,#100,.T.);
#50=ORIENTED_EDGE('',*,*,#101,.F.);
#51=ORIENTED_EDGE('',*,*,#102,.F.);
#52=ORIENTED_EDGE('',*,*,#98,.T.);
#53=ORIENTED_EDGE('',*,*,#103,.T.);
#54=ORIENTED_EDGE('',*,*,#104,.F.);
#55=ORIENTED_EDGE('',*,*,#105,.T.);
#56=ORIENTED_EDGE('',*,*,#106,.F.);
#57=ORIENTED_EDGE('',*,*,#107,.T.);
#58=ORIENTED_EDGE('',*,*,#108,.F.);
#59=ORIENTED_EDGE('',*,*,#109,.T.);
#60=ORIENTED_EDGE('',*,*,#110,.F.);
#61=ORIENTED_EDGE('',*,*,#111,.T.);
#62=ORIENTED_EDGE('',*,*,#96,.F.);
#63=ORIENTED_EDGE('',*,*,#112,.F.);
#64=ORIENTED_EDGE('',*,*,#101,.T.);
#65=ORIENTED_EDGE('',*,*,#113,.T.);
#66=ORIENTED_EDGE('',*,*,#114,.F.);
#67=ORIENTED_EDGE('',*,*,#115,.T.);
#68=ORIENTED_EDGE('',*,*,#116,.T.);
#69=ORIENTED_EDGE('',*,*,#117,.T.);
#70=ORIENTED_EDGE('',*,*,#118,.T.);
#71=ORIENTED_EDGE('',*,*,#95,.F.);
#72=ORIENTED_EDGE('',*,*,#99,.T.);
#73=ORIENTED_EDGE('',*,*,#102,.T.);
#74=ORIENTED_EDGE('',*,*,#112,.T.);
#75=ORIENTED_EDGE('',*,*,#113,.F.);
#76=ORIENTED_EDGE('',*,*,#93,.T.);
#77=ORIENTED_EDGE('',*,*,#111,.F.);
#78=ORIENTED_EDGE('',*,*,#100,.F.);
#79=ORIENTED_EDGE('',*,*,#97,.F.);
#80=ORIENTED_EDGE('',*,*,#110,.T.);
#81=ORIENTED_EDGE('',*,*,#108,.T.);
#82=ORIENTED_EDGE('',*,*,#106,.T.);
#83=ORIENTED_EDGE('',*,*,#104,.T.);
#84=ORIENTED_EDGE('',*,*,#114,.T.);
#85=ORIENTED_EDGE('',*,*,#115,.F.);
#86=ORIENTED_EDGE('',*,*,#107,.F.);
#87=ORIENTED_EDGE('',*,*,#116,.F.);
#88=ORIENTED_EDGE('',*,*,#109,.F.);
#89=ORIENTED_EDGE('',*,*,#117,.F.);
#90=ORIENTED_EDGE('',*,*,#103,.F.);
#91=ORIENTED_EDGE('',*,*,#118,.F.);
#92=ORIENTED_EDGE('',*,*,#105,.F.);
#93=EDGE_CURVE('',#119,#120,#141,.T.);
#94=EDGE_CURVE('',#121,#119,#142,.T.);
#95=EDGE_CURVE('',#121,#122,#143,.T.);
#96=EDGE_CURVE('',#122,#120,#144,.T.);
#97=EDGE_CURVE('',#119,#123,#16,.T.);
#98=EDGE_CURVE('',#124,#123,#145,.T.);
#99=EDGE_CURVE('',#121,#124,#17,.T.);
#100=EDGE_CURVE('',#123,#125,#146,.T.);
#101=EDGE_CURVE('',#126,#125,#147,.T.);
#102=EDGE_CURVE('',#124,#126,#148,.T.);
#103=EDGE_CURVE('',#127,#127,#18,.T.);
#104=EDGE_CURVE('',#128,#128,#19,.T.);
#105=EDGE_CURVE('',#129,#129,#20,.T.);
#106=EDGE_CURVE('',#130,#130,#21,.T.);
#107=EDGE_CURVE('',#131,#131,#22,.T.);
#108=EDGE_CURVE('',#132,#132,#23,.T.);
#109=EDGE_CURVE('',#133,#133,#24,.T.);
#110=EDGE_CURVE('',#134,#134,#25,.T.);
#111=EDGE_CURVE('',#125,#120,#26,.T.);
#112=EDGE_CURVE('',#126,#122,#27,.T.);
#113=EDGE_CURVE('',#135,#135,#28,.T.);
#114=EDGE_CURVE('',#136,#136,#29,.T.);
#115=EDGE_CURVE('',#137,#137,#30,.F.);
#116=EDGE_CURVE('',#138,#138,#31,.F.);
#117=EDGE_CURVE('',#139,#139,#32,.F.);
#118=EDGE_CURVE('',#140,#140,#33,.F.);
#119=VERTEX_POINT('',#369);
#120=VERTEX_POINT('',#370);
#121=VERTEX_POINT('',#372);
#122=VERTEX_POINT('',#374);
#123=VERTEX_POINT('',#378);
#124=VERTEX_POINT('',#380);
#125=VERTEX_POINT('',#384);
#126=VERTEX_POINT('',#386);
#127=VERTEX_POINT('',#390);
#128=VERTEX_POINT('',#392);
#129=VERTEX_POINT('',#395);
#130=VERTEX_POINT('',#397);
#131=VERTEX_POINT('',#400);
#132=VERTEX_POINT('',#402);
#133=VERTEX_POINT('',#405);
#134=VERTEX_POINT('',#407);
#135=VERTEX_POINT('',#413);
#136=VERTEX_POINT('',#415);
#137=VERTEX_POINT('',#418);
#138=VERTEX_POINT('',#420);
#139=VERTEX_POINT('',#422);
#140=VERTEX_POINT('',#424);
#141=LINE('',#368,#149);
#142=LINE('',#371,#150);
#143=LINE('',#373,#151);
#144=LINE('',#375,#152);
#145=LINE('',#379,#153);
#146=LINE('',#383,#154);
#147=LINE('',#385,#155);
#148=LINE('',#387,#156);
#149=VECTOR('',#294,1.);
#150=VECTOR('',#295,1.);
#151=VECTOR('',#296,1.);
#152=VECTOR('',#297,1.);
#153=VECTOR('',#302,1.);
#154=VECTOR('',#307,1.);
#155=VECTOR('',#308,1.);
#156=VECTOR('',#309,1.);
#157=EDGE_LOOP('',(#41,#42,#43,#44));
#158=EDGE_LOOP('',(#45,#46,#47,#48));
#159=EDGE_LOOP('',(#49,#50,#51,#52));
#160=EDGE_LOOP('',(#53));
#161=EDGE_LOOP('',(#54));
#162=EDGE_LOOP('',(#55));
#163=EDGE_LOOP('',(#56));
#164=EDGE_LOOP('',(#57));
#165=EDGE_LOOP('',(#58));
#166=EDGE_LOOP('',(#59));
#167=EDGE_LOOP('',(#60));
#168=EDGE_LOOP('',(#61,#62,#63,#64));
#169=EDGE_LOOP('',(#65));
#170=EDGE_LOOP('',(#66));
#171=EDGE_LOOP('',(#67));
#172=EDGE_LOOP('',(#68));
#173=EDGE_LOOP('',(#69));
#174=EDGE_LOOP('',(#70));
#175=EDGE_LOOP('',(#71,#72,#73,#74));
#176=EDGE_LOOP('',(#75));
#177=EDGE_LOOP('',(#76,#77,#78,#79));
#178=EDGE_LOOP('',(#80));
#179=EDGE_LOOP('',(#81));
#180=EDGE_LOOP('',(#82));
#181=EDGE_LOOP('',(#83));
#182=EDGE_LOOP('',(#84));
#183=EDGE_LOOP('',(#85));
#184=EDGE_LOOP('',(#86));
#185=EDGE_LOOP('',(#87));
#186=EDGE_LOOP('',(#88));
#187=EDGE_LOOP('',(#89));
#188=EDGE_LOOP('',(#90));
#189=EDGE_LOOP('',(#91));
#190=EDGE_LOOP('',(#92));
#191=FACE_BOUND('',#157,.T.);
#192=FACE_BOUND('',#158,.T.);
#193=FACE_BOUND('',#159,.T.);
#194=FACE_BOUND('',#160,.T.);
#195=FACE_BOUND('',#161,.T.);
#196=FACE_BOUND('',#162,.T.);
#197=FACE_BOUND('',#163,.T.);
#198=FACE_BOUND('',#164,.T.);
#199=FACE_BOUND('',#165,.T.);
#200=FACE_BOUND('',#166,.T.);
#201=FACE_BOUND('',#167,.T.);
#202=FACE_BOUND('',#168,.T.);
#203=FACE_BOUND('',#169,.T.);
#204=FACE_BOUND('',#170,.T.);
#205=FACE_BOUND('',#171,.T.);
#206=FACE_BOUND('',#172,.T.);
#207=FACE_BOUND('',#173,.T.);
#208=FACE_BOUND('',#174,.T.);
#209=FACE_BOUND('',#175,.T.);
#210=FACE_BOUND('',#176,.T.);
#211=FACE_BOUND('',#177,.T.);
#212=FACE_BOUND('',#178,.T.);
#213=FACE_BOUND('',#179,.T.);
#214=FACE_BOUND('',#180,.T.);
#215=FACE_BOUND('',#181,.T.);
#216=FACE_BOUND('',#182,.T.);
#217=FACE_BOUND('',#183,.T.);
#218=FACE_BOUND('',#184,.T.);
#219=FACE_BOUND('',#185,.T.);
#220=FACE_BOUND('',#186,.T.);
#221=FACE_BOUND('',#187,.T.);
#222=FACE_BOUND('',#188,.T.);
#223=FACE_BOUND('',#189,.T.);
#224=FACE_BOUND('',#190,.T.);
#225=PLANE('',#257);
#226=PLANE('',#261);
#227=PLANE('',#280);
#228=PLANE('',#285);
#229=ADVANCED_FACE('',(#191),#225,.T.);
#230=ADVANCED_FACE('',(#192),#34,.T.);
#231=ADVANCED_FACE('',(#193),#226,.F.);
#232=ADVANCED_FACE('',(#194,#195),#35,.F.);
#233=ADVANCED_FACE('',(#196,#197),#36,.F.);
#234=ADVANCED_FACE('',(#198,#199),#37,.F.);
#235=ADVANCED_FACE('',(#200,#201),#38,.F.);
#236=ADVANCED_FACE('',(#202),#39,.T.);
#237=ADVANCED_FACE('',(#203,#204),#40,.F.);
#238=ADVANCED_FACE('',(#205,#206,#207,#208,#209,#210),#227,.T.);
#239=ADVANCED_FACE('',(#211,#212,#213,#214,#215,#216),#228,.F.);
#240=ADVANCED_FACE('',(#217,#218),#12,.F.);
#241=ADVANCED_FACE('',(#219,#220),#13,.F.);
#242=ADVANCED_FACE('',(#221,#222),#14,.F.);
#243=ADVANCED_FACE('',(#223,#224),#15,.F.);
#244=CLOSED_SHELL('',(#229,#230,#231,#232,#233,#234,#235,#236,#237,#238,
#239,#240,#241,#242,#243));
#245=STYLED_ITEM('',(#246),#253);
#246=PRESENTATION_STYLE_ASSIGNMENT((#247));
#247=SURFACE_STYLE_USAGE(.BOTH.,#248);
#248=SURFACE_SIDE_STYLE('',(#249));
#249=SURFACE_STYLE_FILL_AREA(#250);
#250=FILL_AREA_STYLE('',(#251));
#251=FILL_AREA_STYLE_COLOUR('',#252);
#252=COLOUR_RGB('',0.615686274509804,0.811764705882353,0.929411764705882);
#253=MANIFOLD_SOLID_BREP('Part 1',#244);
#254=SHAPE_DEFINITION_REPRESENTATION(#436,#255);
#255=SHAPE_REPRESENTATION('Part 1',(#256),#431);
#256=AXIS2_PLACEMENT_3D('',#366,#290,#291);
#257=AXIS2_PLACEMENT_3D('',#367,#292,#293);
#258=AXIS2_PLACEMENT_3D('',#376,#298,#299);
#259=AXIS2_PLACEMENT_3D('',#377,#300,#301);
#260=AXIS2_PLACEMENT_3D('',#381,#303,#304);
#261=AXIS2_PLACEMENT_3D('',#382,#305,#306);
#262=AXIS2_PLACEMENT_3D('',#388,#310,#311);
#263=AXIS2_PLACEMENT_3D('',#389,#312,#313);
#264=AXIS2_PLACEMENT_3D('',#391,#314,#315);
#265=AXIS2_PLACEMENT_3D('',#393,#316,#317);
#266=AXIS2_PLACEMENT_3D('',#394,#318,#319);
#267=AXIS2_PLACEMENT_3D('',#396,#320,#321);
#268=AXIS2_PLACEMENT_3D('',#398,#322,#323);
#269=AXIS2_PLACEMENT_3D('',#399,#324,#325);
#270=AXIS2_PLACEMENT_3D('',#401,#326,#327);
#271=AXIS2_PLACEMENT_3D('',#403,#328,#329);
#272=AXIS2_PLACEMENT_3D('',#404,#330,#331);
#273=AXIS2_PLACEMENT_3D('',#406,#332,#333);
#274=AXIS2_PLACEMENT_3D('',#408,#334,#335);
#275=AXIS2_PLACEMENT_3D('',#409,#336,#337);
#276=AXIS2_PLACEMENT_3D('',#410,#338,#339);
#277=AXIS2_PLACEMENT_3D('',#411,#340,#341);
#278=AXIS2_PLACEMENT_3D('',#412,#342,#343);
#279=AXIS2_PLACEMENT_3D('',#414,#344,#345);
#280=AXIS2_PLACEMENT_3D('',#416,#346,#347);
#281=AXIS2_PLACEMENT_3D('',#417,#348,#349);
#282=AXIS2_PLACEMENT_3D('',#419,#350,#351);
#283=AXIS2_PLACEMENT_3D('',#421,#352,#353);
#284=AXIS2_PLACEMENT_3D('',#423,#354,#355);
#285=AXIS2_PLACEMENT_3D('',#425,#356,#357);
#286=AXIS2_PLACEMENT_3D('',#426,#358,#359);
#287=AXIS2_PLACEMENT_3D('',#427,#360,#361);
#288=AXIS2_PLACEMENT_3D('',#428,#362,#363);
#289=AXIS2_PLACEMENT_3D('',#429,#364,#365);
#290=DIRECTION('',(0.,0.,1.));
#291=DIRECTION('',(1.,0.,0.));
#292=DIRECTION('',(0.923076923076923,0.384615384615385,0.));
#293=DIRECTION('',(-0.384615384615385,0.923076923076923,0.));
#294=DIRECTION('',(0.384615384615385,-0.923076923076923,0.));
#295=DIRECTION('',(0.,0.,-1.));
#296=DIRECTION('',(0.384615384615385,-0.923076923076923,0.));
#297=DIRECTION('',(0.,0.,-1.));
#298=DIRECTION('',(0.,0.,-1.));
#299=DIRECTION('',(-1.,0.,0.));
#300=DIRECTION('',(0.,0.,1.));
#301=DIRECTION('',(0.923076923076923,0.384615384615385,0.));
#302=DIRECTION('',(0.,0.,-1.));
#303=DIRECTION('',(0.,0.,1.));
#304=DIRECTION('',(0.923076923076923,0.384615384615385,0.));
#305=DIRECTION('',(0.923076923076923,-0.384615384615385,0.));
#306=DIRECTION('',(0.384615384615385,0.923076923076923,0.));
#307=DIRECTION('',(-0.384615384615385,-0.923076923076923,0.));
#308=DIRECTION('',(0.,0.,-1.));
#309=DIRECTION('',(-0.384615384615385,-0.923076923076923,0.));
#310=DIRECTION('',(0.,0.,-1.));
#311=DIRECTION('',(-1.,0.,0.));
#312=DIRECTION('',(0.,0.,1.));
#313=DIRECTION('',(1.,0.,0.));
#314=DIRECTION('',(0.,0.,1.));
#315=DIRECTION('',(0.663406434529659,-0.748259248272044,0.));
#316=DIRECTION('',(0.,0.,-1.));
#317=DIRECTION('',(-1.,0.,0.));
#318=DIRECTION('',(0.,0.,1.));
#319=DIRECTION('',(1.,0.,0.));
#320=DIRECTION('',(0.,0.,1.));
#321=DIRECTION('',(0.748259248272044,0.66340643452966,0.));
#322=DIRECTION('',(0.,0.,-1.));
#323=DIRECTION('',(-1.,0.,0.));
#324=DIRECTION('',(0.,0.,1.));
#325=DIRECTION('',(1.,0.,0.));
#326=DIRECTION('',(0.,0.,1.));
#327=DIRECTION('',(-0.66340643452966,0.748259248272044,0.));
#328=DIRECTION('',(0.,0.,-1.));
#329=DIRECTION('',(-1.,0.,0.));
#330=DIRECTION('',(0.,0.,1.));
#331=DIRECTION('',(1.,0.,0.));
#332=DIRECTION('',(0.,0.,1.));
#333=DIRECTION('',(-0.748259248272044,-0.66340643452966,0.));
#334=DIRECTION('',(0.,0.,-1.));
#335=DIRECTION('',(-1.,0.,0.));
#336=DIRECTION('',(0.,0.,1.));
#337=DIRECTION('',(-0.923076923076923,0.384615384615384,0.));
#338=DIRECTION('',(0.,0.,1.));
#339=DIRECTION('',(-0.923076923076923,0.384615384615384,0.));
#340=DIRECTION('',(0.,0.,-1.));
#341=DIRECTION('',(-1.,0.,0.));
#342=DIRECTION('',(0.,0.,1.));
#343=DIRECTION('',(1.,0.,0.));
#344=DIRECTION('',(0.,0.,1.));
#345=DIRECTION('',(1.,0.,0.));
#346=DIRECTION('',(0.,0.,1.));
#347=DIRECTION('',(1.,0.,0.));
#348=DIRECTION('',(0.,0.,1.));
#349=DIRECTION('',(1.,0.,0.));
#350=DIRECTION('',(0.,0.,1.));
#351=DIRECTION('',(1.,0.,0.));
#352=DIRECTION('',(0.,0.,1.));
#353=DIRECTION('',(1.,0.,0.));
#354=DIRECTION('',(0.,0.,1.));
#355=DIRECTION('',(1.,0.,0.));
#356=DIRECTION('',(0.,0.,1.));
#357=DIRECTION('',(1.,0.,0.));
#358=DIRECTION('',(0.,0.,1.));
#359=DIRECTION('',(1.,0.,0.));
#360=DIRECTION('',(0.,0.,1.));
#361=DIRECTION('',(1.,0.,0.));
#362=DIRECTION('',(0.,0.,1.));
#363=DIRECTION('',(1.,0.,0.));
#364=DIRECTION('',(0.,0.,1.));
#365=DIRECTION('',(1.,0.,0.));
#366=CARTESIAN_POINT('',(0.,0.,0.));
#367=CARTESIAN_POINT('',(0.021,0.0315,0.014));
#368=CARTESIAN_POINT('',(0.021,0.0315,0.));
#369=CARTESIAN_POINT('',(0.0129230769230769,0.0508846153846154,0.));
#370=CARTESIAN_POINT('',(0.0290769230769231,0.0121153846153846,0.));
#371=CARTESIAN_POINT('',(0.0129230769230769,0.0508846153846154,0.014));
#372=CARTESIAN_POINT('',(0.0129230769230769,0.0508846153846154,0.014));
#373=CARTESIAN_POINT('',(0.021,0.0315,0.014));
#374=CARTESIAN_POINT('',(0.0290769230769231,0.0121153846153846,0.014));
#375=CARTESIAN_POINT('',(0.0290769230769231,0.0121153846153846,0.014));
#376=CARTESIAN_POINT('',(0.,0.0455,0.014));
#377=CARTESIAN_POINT('',(0.,0.0455,0.));
#378=CARTESIAN_POINT('',(-0.0129230769230769,0.0508846153846154,0.));
#379=CARTESIAN_POINT('',(-0.0129230769230769,0.0508846153846154,0.014));
#380=CARTESIAN_POINT('',(-0.0129230769230769,0.0508846153846154,0.014));
#381=CARTESIAN_POINT('',(0.,0.0455,0.014));
#382=CARTESIAN_POINT('',(-0.021,0.0315,0.014));
#383=CARTESIAN_POINT('',(-0.021,0.0315,0.));
#384=CARTESIAN_POINT('',(-0.0290769230769231,0.0121153846153846,0.));
#385=CARTESIAN_POINT('',(-0.0290769230769231,0.0121153846153846,0.014));
#386=CARTESIAN_POINT('',(-0.0290769230769231,0.0121153846153846,0.014));
#387=CARTESIAN_POINT('',(-0.021,0.0315,0.014));
#388=CARTESIAN_POINT('',(0.0176776695296637,0.0176776695296637,0.014));
#389=CARTESIAN_POINT('',(0.0176776695296637,0.0176776695296637,0.011));
#390=CARTESIAN_POINT('',(0.0206776695296637,0.0176776695296637,0.011));
#391=CARTESIAN_POINT('',(0.0176776695296637,0.0176776695296637,0.));
#392=CARTESIAN_POINT('',(0.0196678888332527,0.0154328917848476,0.));
#393=CARTESIAN_POINT('',(-0.0176776695296637,0.0176776695296637,0.014));
#394=CARTESIAN_POINT('',(-0.0176776695296637,0.0176776695296637,0.011));
#395=CARTESIAN_POINT('',(-0.0146776695296637,0.0176776695296637,0.011));
#396=CARTESIAN_POINT('',(-0.0176776695296637,0.0176776695296637,0.));
#397=CARTESIAN_POINT('',(-0.0154328917848476,0.0196678888332527,0.));
#398=CARTESIAN_POINT('',(-0.0176776695296637,-0.0176776695296637,0.014));
#399=CARTESIAN_POINT('',(-0.0176776695296637,-0.0176776695296637,0.011));
#400=CARTESIAN_POINT('',(-0.0146776695296637,-0.0176776695296637,0.011));
#401=CARTESIAN_POINT('',(-0.0176776695296637,-0.0176776695296637,0.));
#402=CARTESIAN_POINT('',(-0.0196678888332527,-0.0154328917848476,0.));
#403=CARTESIAN_POINT('',(0.0176776695296637,-0.0176776695296637,0.014));
#404=CARTESIAN_POINT('',(0.0176776695296637,-0.0176776695296637,0.011));
#405=CARTESIAN_POINT('',(0.0206776695296637,-0.0176776695296637,0.011));
#406=CARTESIAN_POINT('',(0.0176776695296637,-0.0176776695296637,0.));
#407=CARTESIAN_POINT('',(0.0154328917848476,-0.0196678888332527,0.));
#408=CARTESIAN_POINT('',(1.50461471877862E-18,-1.7347234759768E-18,0.014));
#409=CARTESIAN_POINT('',(1.50461471877862E-18,-1.7347234759768E-18,0.));
#410=CARTESIAN_POINT('',(1.50461471877862E-18,-1.7347234759768E-18,0.014));
#411=CARTESIAN_POINT('',(0.,0.0455,0.014));
#412=CARTESIAN_POINT('',(0.,0.0455,0.014));
#413=CARTESIAN_POINT('',(0.008,0.0455,0.014));
#414=CARTESIAN_POINT('',(0.,0.0455,0.));
#415=CARTESIAN_POINT('',(0.008,0.0455,0.));
#416=CARTESIAN_POINT('',(0.000272838173300621,0.014,0.014));
#417=CARTESIAN_POINT('',(-0.0176776695296637,-0.0176776695296637,0.014));
#418=CARTESIAN_POINT('',(-0.0116776695296637,-0.0176776695296637,0.014));
#419=CARTESIAN_POINT('',(0.0176776695296637,-0.0176776695296637,0.014));
#420=CARTESIAN_POINT('',(0.0236776695296637,-0.0176776695296637,0.014));
#421=CARTESIAN_POINT('',(0.0176776695296637,0.0176776695296637,0.014));
#422=CARTESIAN_POINT('',(0.0236776695296637,0.0176776695296637,0.014));
#423=CARTESIAN_POINT('',(-0.0176776695296637,0.0176776695296637,0.014));
#424=CARTESIAN_POINT('',(-0.0116776695296637,0.0176776695296637,0.014));
#425=CARTESIAN_POINT('',(0.000272838173300621,0.014,0.));
#426=CARTESIAN_POINT('',(-0.0176776695296637,-0.0176776695296637,0.011));
#427=CARTESIAN_POINT('',(0.0176776695296637,-0.0176776695296637,0.011));
#428=CARTESIAN_POINT('',(0.0176776695296637,0.0176776695296637,0.011));
#429=CARTESIAN_POINT('',(-0.0176776695296637,0.0176776695296637,0.011));
#430=MECHANICAL_DESIGN_GEOMETRIC_PRESENTATION_REPRESENTATION('',(#245),
#431);
#431=(
GEOMETRIC_REPRESENTATION_CONTEXT(3)
GLOBAL_UNCERTAINTY_ASSIGNED_CONTEXT((#432))
GLOBAL_UNIT_ASSIGNED_CONTEXT((#435,#434,#433))
REPRESENTATION_CONTEXT('Part 1','TOP_LEVEL_ASSEMBLY_PART')
);
#432=UNCERTAINTY_MEASURE_WITH_UNIT(LENGTH_MEASURE(1.E-8),#435,
'DISTANCE_ACCURACY_VALUE','Maximum Tolerance applied to model');
#433=(
NAMED_UNIT(*)
SI_UNIT($,.STERADIAN.)
SOLID_ANGLE_UNIT()
);
#434=(
NAMED_UNIT(*)
PLANE_ANGLE_UNIT()
SI_UNIT($,.RADIAN.)
);
#435=(
LENGTH_UNIT()
NAMED_UNIT(*)
SI_UNIT($,.METRE.)
);
#436=PRODUCT_DEFINITION_SHAPE('','',#437);
#437=PRODUCT_DEFINITION('','',#439,#438);
#438=PRODUCT_DEFINITION_CONTEXT('',#445,'design');
#439=PRODUCT_DEFINITION_FORMATION_WITH_SPECIFIED_SOURCE('','',#441,
 .NOT_KNOWN.);
#440=PRODUCT_RELATED_PRODUCT_CATEGORY('','',(#441));
#441=PRODUCT('Part 1','Part 1','Part 1',(#443));
#442=PRODUCT_CATEGORY('','');
#443=PRODUCT_CONTEXT('',#445,'mechanical');
#444=APPLICATION_PROTOCOL_DEFINITION('international standard',
'ap242_managed_model_based_3d_engineering',2020,#445);
#445=APPLICATION_CONTEXT('managed model based 3d engineering');
ENDSEC;
END-ISO-10303-21;
