# https://github.com/mikedh/trimesh

o geometry_1
v -3.12845600 1.73014100 -0.50000000 0.04313725 0.11764706 0.45490196
v -4.22572700 2.67268300 -0.50000000 0.04313725 0.11764706 0.45490196
v -4.40187400 2.37139300 -0.50000000 0.04313725 0.11764706 0.45490196
v -2.97489700 1.98257800 -0.50000000 0.04313725 0.11764706 0.45490196
v -4.02899500 2.96094500 -0.50002940 0.04313725 0.11764706 0.45490196
v -3.26064500 1.46588600 -0.50000000 0.04313725 0.11764706 0.45490196
v -4.55656800 2.05856400 -0.50000000 0.04313725 0.11764706 0.45490196
v -4.68906500 1.73570600 -0.50000490 0.04313725 0.11764706 0.45490196
v -2.80101600 2.22147100 -0.50000000 0.04313725 0.11764706 0.45490196
v -3.81263600 3.23478100 -0.50002400 0.04313725 0.11764706 0.45490196
v -2.60800200 2.44519000 -0.50000000 0.04313725 0.11764706 0.45490196
v -3.57770300 3.49285600 -0.50000000 0.04313725 0.11764706 0.45490196
v -3.37056000 1.19161700 -0.50000000 0.04313725 0.11764706 0.45490196
v -4.79872100 1.40437800 -0.50000000 0.04313725 0.11764706 0.45490196
v -2.39717200 2.65220500 -0.50000000 0.04313725 0.11764706 0.45490196
v -3.32533800 3.73391600 -0.50001070 0.04313725 0.11764706 0.45490196
v -3.45745100 0.90920860 -0.50000000 0.04313725 0.11764706 0.45490196
v -4.88499600 1.06621000 -0.50000000 0.04313725 0.11764706 0.45490196
v -3.52072300 0.62058920 -0.50000000 0.04313725 0.11764706 0.45490196
v -4.94747000 0.72286690 -0.50000630 0.04313725 0.11764706 0.45490196
v -2.16996700 2.84110300 -0.50000000 0.04313725 0.11764706 0.45490196
v -2.77331500 4.16037500 -0.50002920 0.04313725 0.11764706 0.45490196
v -3.05677300 3.95678400 -0.50000000 0.04313725 0.11764706 0.45490196
v -3.55994600 0.32773040 -0.50000000 0.04313725 0.11764706 0.45490196
v -4.98584400 0.37598460 -0.50000000 0.04313725 0.11764706 0.45490196
v -1.92793900 3.01059400 -0.50000000 0.04313725 0.11764706 0.45490196
v -2.47634500 4.34369800 -0.50002620 0.04313725 0.11764706 0.45490196
v -1.67274100 3.15951900 -0.50000000 0.04313725 0.11764706 0.45490196
v -2.16731400 4.50585700 -0.50000000 0.04313725 0.11764706 0.45490196
v -3.57485100 0.03263306 -0.50000000 0.04313725 0.11764706 0.45490196
v -4.99992500 0.02726276 -0.50000000 0.04313725 0.11764706 0.45490196
v -4.98964800 -0.32157090 -0.50000100 0.04313725 0.11764706 0.45490196
v -1.40611700 3.28686200 -0.50000000 0.04313725 0.11764706 0.45490196
v -1.84772200 4.64606500 -0.50000300 0.04313725 0.11764706 0.45490196
v -3.56533600 -0.26268730 -0.50000000 0.04313725 0.11764706 0.45490196
v -4.95506300 -0.66884140 -0.50014310 0.04313725 0.11764706 0.45490196
v -1.12988700 3.39175200 -0.50000000 0.04313725 0.11764706 0.45490196
v -1.51912700 4.76363800 -0.50000000 0.04313725 0.11764706 0.45490196
v -3.53146600 -0.55621320 -0.50000000 0.04313725 0.11764706 0.45490196
v -4.89633500 -1.01286600 -0.50000130 0.04313725 0.11764706 0.45490196
v -3.47347300 -0.84593960 -0.50000000 0.04313725 0.11764706 0.45490196
v -4.81375300 -1.35195500 -0.50000000 0.04313725 0.11764706 0.45490196
v -0.84593960 3.47347300 -0.50000000 0.04313725 0.11764706 0.45490196
v -1.18313200 4.85800400 -0.50000080 0.04313725 0.11764706 0.45490196
v -0.55621320 3.53146600 -0.50000000 0.04313725 0.11764706 0.45490196
v -3.39175200 -1.12988700 -0.50000000 0.04313725 0.11764706 0.45490196
v -4.70771700 -1.68446000 -0.50000000 0.04313725 0.11764706 0.45490196
v -3.28686200 -1.40611700 -0.50000000 0.04313725 0.11764706 0.45490196
v -4.57875000 -2.00874200 -0.50000000 0.04313725 0.11764706 0.45490196
v -0.26268730 3.56533600 -0.50000000 0.04313725 0.11764706 0.45490196
v -3.15951900 -1.67274100 -0.50000000 0.04313725 0.11764706 0.45490196
v -4.42747700 -2.32324000 -0.50000510 0.04313725 0.11764706 0.45490196
v -4.25462600 -2.62643600 -0.50000000 0.04313725 0.11764706 0.45490196
v 0.03263306 3.57485100 -0.50000000 0.04313725 0.11764706 0.45490196
v -3.01059400 -1.92793900 -0.50000000 0.04313725 0.11764706 0.45490196
v -4.06104800 -2.91682800 -0.50000000 0.04313725 0.11764706 0.45490196
v 0.32773040 3.55994600 -0.50000000 0.04313725 0.11764706 0.45490196
v 0.62058920 3.52072300 -0.50000000 0.04313725 0.11764706 0.45490196
v -2.84110300 -2.16996700 -0.50000000 0.04313725 0.11764706 0.45490196
v -3.84769700 -3.19299600 -0.50000470 0.04313725 0.11764706 0.45490196
v -2.65220500 -2.39717200 -0.50000000 0.04313725 0.11764706 0.45490196
v -3.61559100 -3.45362200 -0.50004470 0.04313725 0.11764706 0.45490196
v 0.90920860 3.45745100 -0.50000000 0.04313725 0.11764706 0.45490196
v -2.44519000 -2.60800200 -0.50000000 0.04313725 0.11764706 0.45490196
v -3.36586400 -3.69742600 -0.50000000 0.04313725 0.11764706 0.45490196
v 1.19161700 3.37056000 -0.50000000 0.04313725 0.11764706 0.45490196
v 1.46588600 3.26064500 -0.50000000 0.04313725 0.11764706 0.45490196
v -2.22147100 -2.80101600 -0.50000000 0.04313725 0.11764706 0.45490196
v -3.09975100 -3.92320600 -0.50000050 0.04313725 0.11764706 0.45490196
v -2.81853700 -4.12987300 -0.50000480 0.04313725 0.11764706 0.45490196
v -1.98257800 -2.97489700 -0.50000000 0.04313725 0.11764706 0.45490196
v 1.73014100 3.12845600 -0.50000000 0.04313725 0.11764706 0.45490196
v -2.52358100 -4.31642700 -0.50003450 0.04313725 0.11764706 0.45490196
v -1.73014100 -3.12845600 -0.50000000 0.04313725 0.11764706 0.45490196
v -2.21633300 -4.48194900 -0.50000000 0.04313725 0.11764706 0.45490196
v -1.46588600 -3.26064500 -0.50000000 0.04313725 0.11764706 0.45490196
v -1.89828900 -4.62563500 -0.50000000 0.04313725 0.11764706 0.45490196
v -1.19161700 -3.37056000 -0.50000000 0.04313725 0.11764706 0.45490196
v -1.57099700 -4.74678500 -0.50001370 0.04313725 0.11764706 0.45490196
v -0.90920860 -3.45745100 -0.50000000 0.04313725 0.11764706 0.45490196
v -1.23605100 -4.84481000 -0.50000000 0.04313725 0.11764706 0.45490196
v -0.62058920 -3.52072300 -0.50000000 0.04313725 0.11764706 0.45490196
v -0.89508300 -4.91923000 -0.50000530 0.04313725 0.11764706 0.45490196
v -0.54975450 -4.96968500 -0.50000000 0.04313725 0.11764706 0.45490196
v -0.32773040 -3.55994600 -0.50000000 0.04313725 0.11764706 0.45490196
v -0.20174760 -4.99592800 -0.50000000 0.04313725 0.11764706 0.45490196
v -0.03263306 -3.57485100 -0.50000000 0.04313725 0.11764706 0.45490196
v 0.14724100 -4.99783200 -0.50002030 0.04313725 0.11764706 0.45490196
v 0.26268730 -3.56533600 -0.50000000 0.04313725 0.11764706 0.45490196
v 0.49551430 -4.97538600 -0.49999700 0.04313725 0.11764706 0.45490196
v 0.55621320 -3.53146600 -0.50000000 0.04313725 0.11764706 0.45490196
v 0.84137320 -4.92870100 -0.49999660 0.04313725 0.11764706 0.45490196
v 0.84593960 -3.47347300 -0.50000000 0.04313725 0.11764706 0.45490196
v 1.18313200 -4.85800400 -0.50000070 0.04313725 0.11764706 0.45490196
v 2.60800200 -2.44519000 -0.50000000 0.04313725 0.11764706 0.45490196
v 2.39717200 -2.65220500 -0.50000000 0.04313725 0.11764706 0.45490196
v 2.16996700 -2.84110300 -0.50000000 0.04313725 0.11764706 0.45490196
v 1.92793900 -3.01059400 -0.50000000 0.04313725 0.11764706 0.45490196
v 1.67274100 -3.15951900 -0.50000000 0.04313725 0.11764706 0.45490196
v 1.40611700 -3.28686200 -0.50000000 0.04313725 0.11764706 0.45490196
v 1.12988700 -3.39175200 -0.50000000 0.04313725 0.11764706 0.45490196
v 2.80101600 -2.22147100 -0.50000000 0.04313725 0.11764706 0.45490196
v 2.97489700 -1.98257800 -0.50000000 0.04313725 0.11764706 0.45490196
v 47.39690000 16.68933000 -0.50000000 0.04313725 0.11764706 0.45490196
v 45.53416000 13.55547000 -0.50000000 0.04313725 0.11764706 0.45490196
v 1.98257800 2.97489700 -0.50000000 0.04313725 0.11764706 0.45490196
v 45.68912000 13.80429000 -0.50000000 0.04313725 0.11764706 0.45490196
v 45.40057000 13.29455000 -0.50000000 0.04313725 0.11764706 0.45490196
v 2.22147100 2.80101600 -0.50000000 0.04313725 0.11764706 0.45490196
v 45.86435000 14.03928000 -0.50000000 0.04313725 0.11764706 0.45490196
v 45.28928000 13.02337000 -0.50000000 0.04313725 0.11764706 0.45490196
v 2.44519000 2.60800200 -0.50000000 0.04313725 0.11764706 0.45490196
v 46.05864000 14.25878000 -0.50000000 0.04313725 0.11764706 0.45490196
v 45.20108000 12.74382000 -0.50000000 0.04313725 0.11764706 0.45490196
v 2.65220500 2.39717200 -0.50000000 0.04313725 0.11764706 0.45490196
v 46.27060000 14.46125000 -0.50000000 0.04313725 0.11764706 0.45490196
v 45.13657000 12.45788000 -0.50000000 0.04313725 0.11764706 0.45490196
v 2.84110300 2.16996700 -0.50000000 0.04313725 0.11764706 0.45490196
v 46.49877000 14.64528000 -0.50000000 0.04313725 0.11764706 0.45490196
v 45.09622000 12.16754000 -0.50000000 0.04313725 0.11764706 0.45490196
v 3.01059400 1.92793900 -0.50000000 0.04313725 0.11764706 0.45490196
v 46.74153000 14.80956000 -0.50000000 0.04313725 0.11764706 0.45490196
v 45.08031000 11.87485000 -0.50000400 0.04313725 0.11764706 0.45490196
v 3.15951900 1.67274100 -0.50000000 0.04313725 0.11764706 0.45490196
v 46.99719000 14.95296000 -0.50000000 0.04313725 0.11764706 0.45490196
v 45.08894000 11.58184000 -0.50000410 0.04313725 0.11764706 0.45490196
v 3.28686200 1.40611700 -0.50000000 0.04313725 0.11764706 0.45490196
v 47.26396000 15.07446000 -0.50000000 0.04313725 0.11764706 0.45490196
v 45.12206000 11.29059000 -0.50000000 0.04313725 0.11764706 0.45490196
v 3.39175200 1.12988700 -0.50000000 0.04313725 0.11764706 0.45490196
v 47.53995000 15.17321000 -0.50000000 0.04313725 0.11764706 0.45490196
v 45.17943000 11.00313000 -0.50000000 0.04313725 0.11764706 0.45490196
v 3.47347300 0.84593960 -0.50000000 0.04313725 0.11764706 0.45490196
v 3.53146600 0.55621320 -0.50000000 0.04313725 0.11764706 0.45490196
v 47.82324000 15.24852000 -0.50000000 0.04313725 0.11764706 0.45490196
v 47.73866000 16.76002000 -0.50000000 0.04313725 0.11764706 0.45490196
v 45.26066000 10.72148000 -0.50000000 0.04313725 0.11764706 0.45490196
v 3.56533600 0.26268730 -0.50000000 0.04313725 0.11764706 0.45490196
v 48.11184000 15.29987000 -0.50000000 0.04313725 0.11764706 0.45490196
v 48.08452000 16.80671000 -0.50000000 0.04313725 0.11764706 0.45490196
v 45.36517000 10.44761000 -0.49999600 0.04313725 0.11764706 0.45490196
v 3.57485100 -0.03263306 -0.50000000 0.04313725 0.11764706 0.45490196
v 48.40372000 15.32688000 -0.50000000 0.04313725 0.11764706 0.45490196
v 48.43279000 16.82915000 -0.50000000 0.04313725 0.11764706 0.45490196
v 45.49223000 10.18345000 -0.49999590 0.04313725 0.11764706 0.45490196
v 3.55994600 -0.32773040 -0.50000000 0.04313725 0.11764706 0.45490196
v 48.69684000 15.32937000 -0.49999510 0.04313725 0.11764706 0.45490196
v 48.78178000 16.82725000 -0.50000000 0.04313725 0.11764706 0.45490196
v 45.64095000 9.93085200 -0.50000000 0.04313725 0.11764706 0.45490196
v 3.52072300 -0.62058920 -0.50000000 0.04313725 0.11764706 0.45490196
v 48.98914000 15.30733000 -0.49999510 0.04313725 0.11764706 0.45490196
v 49.47512000 16.75055000 -0.50000000 0.04313725 0.11764706 0.45490196
v 49.12979000 16.80101000 -0.50000000 0.04313725 0.11764706 0.45490196
v 45.81028000 9.69158100 -0.50000000 0.04313725 0.11764706 0.45490196
v 3.45745100 -0.90920860 -0.50000000 0.04313725 0.11764706 0.45490196
v 49.27857000 15.26091000 -0.50000000 0.04313725 0.11764706 0.45490196
v 49.81609000 16.67613000 -0.50000000 0.04313725 0.11764706 0.45490196
v 45.99905000 9.46731900 -0.50000000 0.04313725 0.11764706 0.45490196
v 3.37056000 -1.19161700 -0.50000000 0.04313725 0.11764706 0.45490196
v 49.56310000 15.19043000 -0.50000000 0.04313725 0.11764706 0.45490196
v 50.15103000 16.57811000 -0.50000000 0.04313725 0.11764706 0.45490196
v 46.20591000 9.25963800 -0.50000000 0.04313725 0.11764706 0.45490196
v 3.26064500 -1.46588600 -0.50000000 0.04313725 0.11764706 0.45490196
v 49.84074000 15.09639000 -0.50000000 0.04313725 0.11764706 0.45490196
v 50.47832000 16.45696000 -0.50000000 0.04313725 0.11764706 0.45490196
v 46.42943000 9.06999700 -0.50000000 0.04313725 0.11764706 0.45490196
v 3.12845600 -1.73014100 -0.50000000 0.04313725 0.11764706 0.45490196
v 50.10953000 14.97944000 -0.50000170 0.04313725 0.11764706 0.45490196
v 50.79637000 16.31327000 -0.50000000 0.04313725 0.11764706 0.45490196
v 46.66804000 8.89972300 -0.50000000 0.04313725 0.11764706 0.45490196
v 50.36759000 14.84042000 -0.50000140 0.04313725 0.11764706 0.45490196
v 51.10362000 16.14775000 -0.50000000 0.04313725 0.11764706 0.45490196
v 46.92005000 8.75001300 -0.50000000 0.04313725 0.11764706 0.45490196
v 51.39857000 15.96120000 -0.50000000 0.04313725 0.11764706 0.45490196
v 50.61312000 14.68028000 -0.50000000 0.04313725 0.11764706 0.45490196
v 51.67978000 15.75453000 -0.50000000 0.04313725 0.11764706 0.45490196
v 50.84438000 14.50017000 -0.50000000 0.04313725 0.11764706 0.45490196
v 51.94590000 15.52874000 -0.50000000 0.04313725 0.11764706 0.45490196
v 51.05976000 14.30133000 -0.50000000 0.04313725 0.11764706 0.45490196
v 52.19562000 15.28495000 -0.50000000 0.04313725 0.11764706 0.45490196
v 51.25775000 14.08517000 -0.50000000 0.04313725 0.11764706 0.45490196
v 52.42773000 15.02432000 -0.50000000 0.04313725 0.11764706 0.45490196
v 52.64109000 14.74814000 -0.50000000 0.04313725 0.11764706 0.45490196
v 51.43696000 13.85320000 -0.50000010 0.04313725 0.11764706 0.45490196
v 52.83466000 14.45775000 -0.50000000 0.04313725 0.11764706 0.45490196
v 51.59612000 13.60705000 -0.50000000 0.04313725 0.11764706 0.45490196
v 53.00751000 14.15457000 -0.50000000 0.04313725 0.11764706 0.45490196
v 51.73413000 13.34844000 -0.50000000 0.04313725 0.11764706 0.45490196
v 53.15879000 13.84006000 -0.50000000 0.04313725 0.11764706 0.45490196
v 51.85002000 13.07919000 -0.50000000 0.04313725 0.11764706 0.45490196
v 53.28776000 13.51577000 -0.50000000 0.04313725 0.11764706 0.45490196
v 51.94297000 12.80119000 -0.50000000 0.04313725 0.11764706 0.45490196
v 53.39379000 13.18328000 -0.50000000 0.04313725 0.11764706 0.45490196
v 49.76317000 6.97331900 -0.50000000 0.04313725 0.11764706 0.45490196
v 49.47926000 8.44881100 -0.50000000 0.04313725 0.11764706 0.45490196
v 49.19307000 8.38542700 -0.50000000 0.04313725 0.11764706 0.45490196
v 48.90257000 8.34621600 -0.50000000 0.04313725 0.11764706 0.45490196
v 48.60981000 8.33144900 -0.50000000 0.04313725 0.11764706 0.45490196
v 48.31685000 8.34123200 -0.50000000 0.04313725 0.11764706 0.45490196
v 48.02573000 8.37549500 -0.50000000 0.04313725 0.11764706 0.45490196
v 47.73850000 8.43399800 -0.50000000 0.04313725 0.11764706 0.45490196
v 47.45717000 8.51633100 -0.50000000 0.04313725 0.11764706 0.45490196
v 47.18371000 8.62191700 -0.50000000 0.04313725 0.11764706 0.45490196
v 53.47637000 12.84419000 -0.50000000 0.04313725 0.11764706 0.45490196
v 52.01234000 12.51639000 -0.50000000 0.04313725 0.11764706 0.45490196
v 50.09916000 7.06768400 -0.50000000 0.04313725 0.11764706 0.45490196
v 49.75915000 8.53591800 -0.50000000 0.04313725 0.11764706 0.45490196
v 53.53510000 12.50017000 -0.50000000 0.04313725 0.11764706 0.45490196
v 52.05762000 12.22678000 -0.50000000 0.04313725 0.11764706 0.45490196
v 50.42776000 7.18525700 -0.50000000 0.04313725 0.11764706 0.45490196
v 50.03077000 8.64614200 -0.50000000 0.04313725 0.11764706 0.45490196
v 53.56968000 12.15290000 -0.50000000 0.04313725 0.11764706 0.45490196
v 52.07852000 11.93439000 -0.50000000 0.04313725 0.11764706 0.45490196
v 50.74735000 7.32546500 -0.50000000 0.04313725 0.11764706 0.45490196
v 50.29221000 8.77870600 -0.50000000 0.04313725 0.11764706 0.45490196
v 53.57996000 11.80405000 -0.50000000 0.04313725 0.11764706 0.45490196
v 52.07487000 11.64128000 -0.50000000 0.04313725 0.11764706 0.45490196
v 51.05638000 7.48762500 -0.50000000 0.04313725 0.11764706 0.45490196
v 50.54164000 8.93268300 -0.50000000 0.04313725 0.11764706 0.45490196
v 53.56588000 11.45534000 -0.50000000 0.04313725 0.11764706 0.45490196
v 52.04671000 11.34952000 -0.49999030 0.04313725 0.11764706 0.45490196
v 51.35335000 7.67094800 -0.50000000 0.04313725 0.11764706 0.45490196
v 53.52751000 11.10846000 -0.50000000 0.04313725 0.11764706 0.45490196
v 51.99424000 11.06112000 -0.49999030 0.04313725 0.11764706 0.45490196
v 51.63681000 7.87453900 -0.50000000 0.04313725 0.11764706 0.45490196
v 50.77731000 9.10699200 -0.50000000 0.04313725 0.11764706 0.45490196
v 53.46503000 10.76511000 -0.50000000 0.04313725 0.11764706 0.45490196
v 51.90537000 8.09740700 -0.50000000 0.04313725 0.11764706 0.45490196
v 50.99757000 9.30041100 -0.50000000 0.04313725 0.11764706 0.45490196
v 53.37876000 10.42694000 -0.50000000 0.04313725 0.11764706 0.45490196
v 51.91781000 10.77812000 -0.50000000 0.04313725 0.11764706 0.45490196
v 52.15774000 8.33846700 -0.50000000 0.04313725 0.11764706 0.45490196
v 51.20087000 9.51158100 -0.50000000 0.04313725 0.11764706 0.45490196
v 53.26910000 10.09562000 -0.50000000 0.04313725 0.11764706 0.45490196
v 51.81798000 10.50252000 -0.50000000 0.04313725 0.11764706 0.45490196
v 52.39267000 8.59654300 -0.50000000 0.04313725 0.11764706 0.45490196
v 51.38579000 9.73902400 -0.49999830 0.04313725 0.11764706 0.45490196
v 53.13660000 9.77275700 -0.50000000 0.04313725 0.11764706 0.45490196
v 51.69543000 10.23624000 -0.50000000 0.04313725 0.11764706 0.45490196
v 52.60903000 8.87037900 -0.50000000 0.04313725 0.11764706 0.45490196
v 51.55103000 9.98114200 -0.49999860 0.04313725 0.11764706 0.45490196
v 52.98191000 9.45992200 -0.50000000 0.04313725 0.11764706 0.45490196
v 52.80576000 9.15864000 -0.50000000 0.04313725 0.11764706 0.45490196
v -2.07448800 -0.04612753 -0.00004272 0.04313725 0.11764706 0.45490196
v -2.05733900 -0.27014800 -0.00003365 0.04313725 0.11764706 0.45490196
v -2.05733900 -0.27014590 -10.50000000 0.04313725 0.11764706 0.45490196
v -2.07448800 -0.04612583 -10.50000000 0.04313725 0.11764706 0.45490196
v -2.06731400 0.17843710 -0.00000000 0.04313725 0.11764706 0.45490196
v -2.06731400 0.17843710 -10.50000000 0.04313725 0.11764706 0.45490196
v -2.03590200 0.40091150 -10.49993000 0.04313725 0.11764706 0.45490196
v -2.03590200 0.40091180 0.00000010 0.04313725 0.11764706 0.45490196
v -1.98062100 0.61867830 0.00000000 0.04313725 0.11764706 0.45490196
v -1.98062100 0.61867910 -10.49996000 0.04313725 0.11764706 0.45490196
v -1.90212200 0.82919240 -0.00001123 0.04313725 0.11764706 0.45490196
v -1.90212100 0.82919280 -10.50000000 0.04313725 0.11764706 0.45490196
v -1.80131800 1.02998800 -10.49998000 0.04313725 0.11764706 0.45490196
v -1.80131900 1.02998700 0.00000000 0.04313725 0.11764706 0.45490196
v -1.67940000 1.21870500 -0.00003263 0.04313725 0.11764706 0.45490196
v -1.67939900 1.21870700 -10.50000000 0.04313725 0.11764706 0.45490196
v -1.53778800 1.39313800 -10.49999000 0.04313725 0.11764706 0.45490196
v -1.53778800 1.39313700 0.00000000 0.04313725 0.11764706 0.45490196
v -1.37814900 1.55123500 -10.49999000 0.04313725 0.11764706 0.45490196
v -1.37814900 1.55123500 -0.00000000 0.04313725 0.11764706 0.45490196
v -1.20235300 1.69114500 -0.00002125 0.04313725 0.11764706 0.45490196
v -1.20235200 1.69114600 -10.50000000 0.04313725 0.11764706 0.45490196
v -1.01245900 1.81122900 -10.50000000 0.04313725 0.11764706 0.45490196
v -1.01246000 1.81122900 -0.00000913 0.04313725 0.11764706 0.45490196
v -0.81069540 1.91007800 -10.49999000 0.04313725 0.11764706 0.45490196
v -0.81069580 1.91007800 0.00000000 0.04313725 0.11764706 0.45490196
v -0.59942820 1.98653200 -10.50000000 0.04313725 0.11764706 0.45490196
v -0.59942800 1.98653200 -0.00000488 0.04313725 0.11764706 0.45490196
v -0.38113150 2.03969700 -10.50000000 0.04313725 0.11764706 0.45490196
v -0.38113160 2.03969700 0.00000490 0.04313725 0.11764706 0.45490196
v -0.15836810 2.06894800 -0.00000713 0.04313725 0.11764706 0.45490196
v -0.15836770 2.06894800 -10.50000000 0.04313725 0.11764706 0.45490196
v 0.06625385 2.07394200 -10.49999000 0.04313725 0.11764706 0.45490196
v 0.06625330 2.07394200 0.00000000 0.04313725 0.11764706 0.45490196
v 0.29009880 2.05462100 -10.49998000 0.04313725 0.11764706 0.45490196
v 0.51054060 2.01121200 -10.50000000 0.04313725 0.11764706 0.45490196
v 0.51053980 2.01121200 -0.00001218 0.04313725 0.11764706 0.45490196
v 0.29009750 2.05462100 -0.00000000 0.04313725 0.11764706 0.45490196
v 0.72499710 1.94422300 -0.00001470 0.04313725 0.11764706 0.45490196
v 0.72499800 1.94422300 -10.50000000 0.04313725 0.11764706 0.45490196
v 0.93095740 1.85443900 -10.49997000 0.04313725 0.11764706 0.45490196
v 0.93095560 1.85444000 0.00000000 0.04313725 0.11764706 0.45490196
v 1.12599800 1.74291500 -10.50000000 0.04313725 0.11764706 0.45490196
v 1.12599700 1.74291500 -0.00001713 0.04313725 0.11764706 0.45490196
v 1.30784100 1.61095600 -10.49999000 0.04313725 0.11764706 0.45490196
v 1.30784000 1.61095600 0.00000000 0.04313725 0.11764706 0.45490196
v 1.47434600 1.46011200 -0.00004263 0.04313725 0.11764706 0.45490196
v 1.47434700 1.46011100 -10.50000000 0.04313725 0.11764706 0.45490196
v 1.62357000 1.29215000 -10.50000000 0.04313725 0.11764706 0.45490196
v 1.62356900 1.29215000 -0.00000396 0.04313725 0.11764706 0.45490196
v 1.75376000 1.10903200 -0.00000000 0.04313725 0.11764706 0.45490196
v 1.75376000 1.10903200 -10.50000000 0.04313725 0.11764706 0.45490196
v 1.86338700 0.91291560 0.00000000 0.04313725 0.11764706 0.45490196
v 1.86338800 0.91291390 -10.49996000 0.04313725 0.11764706 0.45490196
v 1.95116700 0.70609730 0.00000000 0.04313725 0.11764706 0.45490196
v 1.95116700 0.70609500 -10.49997000 0.04313725 0.11764706 0.45490196
v 2.01607200 0.49099990 -0.00000000 0.04313725 0.11764706 0.45490196
v 2.01607200 0.49099990 -10.50000000 0.04313725 0.11764706 0.45490196
v 2.05733900 0.27014800 -0.00003365 0.04313725 0.11764706 0.45490196
v 2.05733900 0.27014590 -10.50000000 0.04313725 0.11764706 0.45490196
v 2.07448800 0.04612753 -0.00004272 0.04313725 0.11764706 0.45490196
v 2.07448800 0.04612583 -10.50000000 0.04313725 0.11764706 0.45490196
v 2.06731400 -0.17843710 -0.00000000 0.04313725 0.11764706 0.45490196
v 2.06731400 -0.17843710 -10.50000000 0.04313725 0.11764706 0.45490196
v 2.03590200 -0.40091150 -10.49993000 0.04313725 0.11764706 0.45490196
v 2.03590200 -0.40091180 0.00000010 0.04313725 0.11764706 0.45490196
v 1.98062100 -0.61867830 0.00000000 0.04313725 0.11764706 0.45490196
v 1.98062100 -0.61867910 -10.49996000 0.04313725 0.11764706 0.45490196
v 1.90212200 -0.82919240 -0.00001123 0.04313725 0.11764706 0.45490196
v 1.90212100 -0.82919280 -10.50000000 0.04313725 0.11764706 0.45490196
v 1.80131800 -1.02998800 -10.49998000 0.04313725 0.11764706 0.45490196
v 1.80131900 -1.02998700 0.00000000 0.04313725 0.11764706 0.45490196
v 1.67940000 -1.21870500 -0.00003263 0.04313725 0.11764706 0.45490196
v 1.67939900 -1.21870700 -10.50000000 0.04313725 0.11764706 0.45490196
v 1.53778800 -1.39313800 -10.49999000 0.04313725 0.11764706 0.45490196
v 1.53778800 -1.39313700 0.00000000 0.04313725 0.11764706 0.45490196
v 1.37814900 -1.55123500 -10.49999000 0.04313725 0.11764706 0.45490196
v 1.37814900 -1.55123500 -0.00000000 0.04313725 0.11764706 0.45490196
v 1.20235300 -1.69114500 -0.00002125 0.04313725 0.11764706 0.45490196
v 1.20235200 -1.69114600 -10.50000000 0.04313725 0.11764706 0.45490196
v 1.01245900 -1.81122900 -10.50000000 0.04313725 0.11764706 0.45490196
v 1.01246000 -1.81122900 -0.00000913 0.04313725 0.11764706 0.45490196
v 0.81069550 -1.91007800 -10.49999000 0.04313725 0.11764706 0.45490196
v 0.81069580 -1.91007800 0.00000000 0.04313725 0.11764706 0.45490196
v 0.59942810 -1.98653200 -10.50000000 0.04313725 0.11764706 0.45490196
v 0.59942800 -1.98653200 -0.00000487 0.04313725 0.11764706 0.45490196
v 0.38113140 -2.03969700 -10.50000000 0.04313725 0.11764706 0.45490196
v 0.38113160 -2.03969700 0.00000490 0.04313725 0.11764706 0.45490196
v 0.15836810 -2.06894800 -0.00000713 0.04313725 0.11764706 0.45490196
v 0.15836770 -2.06894800 -10.50000000 0.04313725 0.11764706 0.45490196
v -0.06625420 -2.07394200 -10.49999000 0.04313725 0.11764706 0.45490196
v -0.06625330 -2.07394200 0.00000000 0.04313725 0.11764706 0.45490196
v -0.29009850 -2.05462100 -10.49998000 0.04313725 0.11764706 0.45490196
v -0.29009750 -2.05462100 -0.00000000 0.04313725 0.11764706 0.45490196
v -0.51054060 -2.01121200 -10.50000000 0.04313725 0.11764706 0.45490196
v -0.51053980 -2.01121200 -0.00001218 0.04313725 0.11764706 0.45490196
v -0.72499710 -1.94422300 -0.00001470 0.04313725 0.11764706 0.45490196
v -0.72499800 -1.94422300 -10.50000000 0.04313725 0.11764706 0.45490196
v -0.93095740 -1.85443900 -10.49997000 0.04313725 0.11764706 0.45490196
v -0.93095560 -1.85444000 0.00000000 0.04313725 0.11764706 0.45490196
v -1.12599800 -1.74291500 -10.50000000 0.04313725 0.11764706 0.45490196
v -1.12599700 -1.74291500 -0.00001713 0.04313725 0.11764706 0.45490196
v -1.30784100 -1.61095600 -10.49999000 0.04313725 0.11764706 0.45490196
v -1.30784000 -1.61095600 0.00000000 0.04313725 0.11764706 0.45490196
v -1.47434600 -1.46011200 -0.00004263 0.04313725 0.11764706 0.45490196
v -1.47434700 -1.46011100 -10.50000000 0.04313725 0.11764706 0.45490196
v -1.62357000 -1.29215000 -10.50000000 0.04313725 0.11764706 0.45490196
v -1.62356900 -1.29215000 0.00000000 0.04313725 0.11764706 0.45490196
v -1.75376000 -1.10903200 -10.50000000 0.04313725 0.11764706 0.45490196
v -1.75376000 -1.10903200 -0.00000000 0.04313725 0.11764706 0.45490196
v -1.86338700 -0.91291560 0.00000000 0.04313725 0.11764706 0.45490196
v -1.86338800 -0.91291390 -10.49996000 0.04313725 0.11764706 0.45490196
v -1.95116700 -0.70609730 0.00000000 0.04313725 0.11764706 0.45490196
v -1.95116700 -0.70609500 -10.49997000 0.04313725 0.11764706 0.45490196
v -2.01607200 -0.49099990 -0.00000000 0.04313725 0.11764706 0.45490196
v -2.01607200 -0.49099990 -10.50000000 0.04313725 0.11764706 0.45490196
v 47.39690000 16.68933000 -10.50000000 0.04313725 0.11764706 0.45490196
v -1.18313200 4.85800300 -10.50000000 0.04313725 0.11764706 0.45490196
v 47.73866000 16.76002000 -10.50000000 0.04313725 0.11764706 0.45490196
v 48.08452000 16.80671000 -10.50000000 0.04313725 0.11764706 0.45490196
v 48.43279000 16.82915000 -10.50000000 0.04313725 0.11764706 0.45490196
v 48.78178000 16.82725000 -10.50000000 0.04313725 0.11764706 0.45490196
v 49.12979000 16.80101000 -10.50000000 0.04313725 0.11764706 0.45490196
v 49.47512000 16.75055000 -10.50000000 0.04313725 0.11764706 0.45490196
v 49.81609000 16.67613000 -10.50000000 0.04313725 0.11764706 0.45490196
v 50.15103000 16.57811000 -10.50000000 0.04313725 0.11764706 0.45490196
v 50.47832000 16.45696000 -10.50000000 0.04313725 0.11764706 0.45490196
v 50.79637000 16.31327000 -10.50000000 0.04313725 0.11764706 0.45490196
v 51.10362000 16.14775000 -10.50000000 0.04313725 0.11764706 0.45490196
v 51.39857000 15.96120000 -10.50000000 0.04313725 0.11764706 0.45490196
v 51.67978000 15.75453000 -10.50000000 0.04313725 0.11764706 0.45490196
v 51.94590000 15.52874000 -10.50000000 0.04313725 0.11764706 0.45490196
v 52.19562000 15.28495000 -10.50000000 0.04313725 0.11764706 0.45490196
v 52.42773000 15.02432000 -10.50000000 0.04313725 0.11764706 0.45490196
v 52.64109000 14.74814000 -10.50000000 0.04313725 0.11764706 0.45490196
v 52.83466000 14.45775000 -10.50000000 0.04313725 0.11764706 0.45490196
v 53.00751000 14.15457000 -10.50000000 0.04313725 0.11764706 0.45490196
v 53.15879000 13.84006000 -10.50000000 0.04313725 0.11764706 0.45490196
v 53.28776000 13.51577000 -10.50000000 0.04313725 0.11764706 0.45490196
v 53.39379000 13.18328000 -10.50000000 0.04313725 0.11764706 0.45490196
v 53.47637000 12.84419000 -10.50000000 0.04313725 0.11764706 0.45490196
v 53.53510000 12.50017000 -10.50000000 0.04313725 0.11764706 0.45490196
v 53.56968000 12.15290000 -10.50000000 0.04313725 0.11764706 0.45490196
v 53.57996000 11.80405000 -10.50000000 0.04313725 0.11764706 0.45490196
v 53.56588000 11.45534000 -10.50000000 0.04313725 0.11764706 0.45490196
v 53.52751000 11.10846000 -10.50000000 0.04313725 0.11764706 0.45490196
v 53.46503000 10.76511000 -10.50000000 0.04313725 0.11764706 0.45490196
v 53.37876000 10.42694000 -10.50000000 0.04313725 0.11764706 0.45490196
v 53.26910000 10.09562000 -10.50000000 0.04313725 0.11764706 0.45490196
v 53.13660000 9.77275700 -10.50000000 0.04313725 0.11764706 0.45490196
v 52.98191000 9.45992200 -10.50000000 0.04313725 0.11764706 0.45490196
v 52.80576000 9.15864000 -10.50000000 0.04313725 0.11764706 0.45490196
v 52.60903000 8.87037900 -10.50000000 0.04313725 0.11764706 0.45490196
v 52.39267000 8.59654300 -10.50000000 0.04313725 0.11764706 0.45490196
v 52.15774000 8.33846700 -10.50000000 0.04313725 0.11764706 0.45490196
v 51.90537000 8.09740700 -10.50000000 0.04313725 0.11764706 0.45490196
v 51.63681000 7.87453900 -10.50000000 0.04313725 0.11764706 0.45490196
v 51.35335000 7.67094800 -10.50000000 0.04313725 0.11764706 0.45490196
v 51.05638000 7.48762500 -10.50000000 0.04313725 0.11764706 0.45490196
v 50.74735000 7.32546500 -10.50000000 0.04313725 0.11764706 0.45490196
v 50.42776000 7.18525700 -10.50000000 0.04313725 0.11764706 0.45490196
v 50.09916000 7.06768400 -10.50000000 0.04313725 0.11764706 0.45490196
v 49.76317000 6.97331900 -10.50000000 0.04313725 0.11764706 0.45490196
v 1.18313200 -4.85800400 -10.50000000 0.04313725 0.11764706 0.45490196
v 0.84137300 -4.92870100 -10.50000000 0.04313725 0.11764706 0.45490196
v 0.49551430 -4.97538600 -10.50000000 0.04313725 0.11764706 0.45490196
v 0.14724230 -4.99783100 -10.50000000 0.04313725 0.11764706 0.45490196
v -0.20174510 -4.99592800 -10.49997000 0.04313725 0.11764706 0.45490196
v -0.54975410 -4.96968500 -10.49997000 0.04313725 0.11764706 0.45490196
v -0.89508310 -4.91923000 -10.50000000 0.04313725 0.11764706 0.45490196
v -1.23605000 -4.84481000 -10.49999000 0.04313725 0.11764706 0.45490196
v -1.57099600 -4.74678500 -10.50000000 0.04313725 0.11764706 0.45490196
v -1.89828700 -4.62563600 -10.49998000 0.04313725 0.11764706 0.45490196
v -2.21633100 -4.48195000 -10.49997000 0.04313725 0.11764706 0.45490196
v -2.52357900 -4.31642800 -10.50000000 0.04313725 0.11764706 0.45490196
v -2.81853700 -4.12987300 -10.50000000 0.04313725 0.11764706 0.45490196
v -3.09975200 -3.92320500 -10.50000000 0.04313725 0.11764706 0.45490196
v -3.36586400 -3.69742700 -10.50000000 0.04313725 0.11764706 0.45490196
v -3.61559000 -3.45362400 -10.50000000 0.04313725 0.11764706 0.45490196
v -3.84769700 -3.19299600 -10.50000000 0.04313725 0.11764706 0.45490196
v -4.06104800 -2.91682800 -10.50000000 0.04313725 0.11764706 0.45490196
v -4.25462600 -2.62643600 -10.50000000 0.04313725 0.11764706 0.45490196
v -4.42747700 -2.32324000 -10.50000000 0.04313725 0.11764706 0.45490196
v -4.57874900 -2.00874400 -10.50000000 0.04313725 0.11764706 0.45490196
v -4.70771600 -1.68446000 -10.49986000 0.04313725 0.11764706 0.45490196
v -4.81375200 -1.35195700 -10.50000000 0.04313725 0.11764706 0.45490196
v -4.89633500 -1.01286800 -10.50000000 0.04313725 0.11764706 0.45490196
v -4.95506400 -0.66884140 -10.50000000 0.04313725 0.11764706 0.45490196
v -4.98964800 -0.32157310 -10.50000000 0.04313725 0.11764706 0.45490196
v -4.99992500 0.02726273 -10.49999000 0.04313725 0.11764706 0.45490196
v -4.98584400 0.37598460 -10.50000000 0.04313725 0.11764706 0.45490196
v -4.94747000 0.72286690 -10.50000000 0.04313725 0.11764706 0.45490196
v -4.88499600 1.06621000 -10.50000000 0.04313725 0.11764706 0.45490196
v -4.79872200 1.40437600 -10.49996000 0.04313725 0.11764706 0.45490196
v -4.68906500 1.73570600 -10.50000000 0.04313725 0.11764706 0.45490196
v -4.55656800 2.05856300 -10.50000000 0.04313725 0.11764706 0.45490196
v -4.40187400 2.37139300 -10.49999000 0.04313725 0.11764706 0.45490196
v -4.22572800 2.67268000 -10.49997000 0.04313725 0.11764706 0.45490196
v -4.02899600 2.96094400 -10.50000000 0.04313725 0.11764706 0.45490196
v -3.81263700 3.23478000 -10.50000000 0.04313725 0.11764706 0.45490196
v -3.57770300 3.49285500 -10.49999000 0.04313725 0.11764706 0.45490196
v -3.32533800 3.73391600 -10.50000000 0.04313725 0.11764706 0.45490196
v -3.05677300 3.95678400 -10.49999000 0.04313725 0.11764706 0.45490196
v -2.77331600 4.16037500 -10.50000000 0.04313725 0.11764706 0.45490196
v -2.47634700 4.34369700 -10.50000000 0.04313725 0.11764706 0.45490196
v -2.16731500 4.50585700 -10.49998000 0.04313725 0.11764706 0.45490196
v -1.84772200 4.64606500 -10.50000000 0.04313725 0.11764706 0.45490196
v -1.51912700 4.76363800 -10.50000000 0.04313725 0.11764706 0.45490196
v -2.97489700 1.98257800 0.00000000 0.04313725 0.11764706 0.45490196
v -3.12845600 1.73014100 0.00000000 0.04313725 0.11764706 0.45490196
v -2.80101600 2.22147100 0.00000000 0.04313725 0.11764706 0.45490196
v -3.26064500 1.46588600 0.00000000 0.04313725 0.11764706 0.45490196
v -3.37056000 1.19161700 0.00000000 0.04313725 0.11764706 0.45490196
v -2.60800200 2.44519000 0.00000000 0.04313725 0.11764706 0.45490196
v -3.45745100 0.90920860 0.00000000 0.04313725 0.11764706 0.45490196
v -2.16996700 2.84110300 0.00000000 0.04313725 0.11764706 0.45490196
v -2.39717200 2.65220500 0.00000000 0.04313725 0.11764706 0.45490196
v -3.52072300 0.62058920 0.00000000 0.04313725 0.11764706 0.45490196
v -1.92793900 3.01059400 0.00000000 0.04313725 0.11764706 0.45490196
v -3.55994600 0.32773040 0.00000000 0.04313725 0.11764706 0.45490196
v -3.57485100 0.03263306 0.00000000 0.04313725 0.11764706 0.45490196
v -1.67274100 3.15951900 0.00000000 0.04313725 0.11764706 0.45490196
v -3.56533600 -0.26268730 0.00000000 0.04313725 0.11764706 0.45490196
v -1.12988700 3.39175200 0.00000000 0.04313725 0.11764706 0.45490196
v -1.40611700 3.28686200 0.00000000 0.04313725 0.11764706 0.45490196
v -3.53146600 -0.55621320 0.00000000 0.04313725 0.11764706 0.45490196
v -0.84593960 3.47347300 0.00000000 0.04313725 0.11764706 0.45490196
v -3.47347300 -0.84593960 0.00000000 0.04313725 0.11764706 0.45490196
v -3.39175200 -1.12988700 0.00000000 0.04313725 0.11764706 0.45490196
v -0.55621320 3.53146600 0.00000000 0.04313725 0.11764706 0.45490196
v -3.28686200 -1.40611700 0.00000000 0.04313725 0.11764706 0.45490196
v 0.03263306 3.57485100 0.00000000 0.04313725 0.11764706 0.45490196
v -0.26268730 3.56533600 0.00000000 0.04313725 0.11764706 0.45490196
v -3.15951900 -1.67274100 0.00000000 0.04313725 0.11764706 0.45490196
v 0.32773040 3.55994600 0.00000000 0.04313725 0.11764706 0.45490196
v -3.01059400 -1.92793900 0.00000000 0.04313725 0.11764706 0.45490196
v -2.84110300 -2.16996700 0.00000000 0.04313725 0.11764706 0.45490196
v 0.62058920 3.52072300 0.00000000 0.04313725 0.11764706 0.45490196
v -2.65220500 -2.39717200 0.00000000 0.04313725 0.11764706 0.45490196
v 1.19161700 3.37056000 0.00000000 0.04313725 0.11764706 0.45490196
v 0.90920860 3.45745100 0.00000000 0.04313725 0.11764706 0.45490196
v -2.44519000 -2.60800200 0.00000000 0.04313725 0.11764706 0.45490196
v 1.46588600 3.26064500 0.00000000 0.04313725 0.11764706 0.45490196
v -2.22147100 -2.80101600 0.00000000 0.04313725 0.11764706 0.45490196
v -1.98257800 -2.97489700 0.00000000 0.04313725 0.11764706 0.45490196
v 1.73014100 3.12845600 0.00000000 0.04313725 0.11764706 0.45490196
v -1.73014100 -3.12845600 0.00000000 0.04313725 0.11764706 0.45490196
v 1.98257800 2.97489700 0.00000000 0.04313725 0.11764706 0.45490196
v -1.46588600 -3.26064500 0.00000000 0.04313725 0.11764706 0.45490196
v 2.22147100 2.80101600 0.00000000 0.04313725 0.11764706 0.45490196
v 2.44519000 2.60800200 0.00000000 0.04313725 0.11764706 0.45490196
v -1.19161700 -3.37056000 0.00000000 0.04313725 0.11764706 0.45490196
v 2.65220500 2.39717200 0.00000000 0.04313725 0.11764706 0.45490196
v -0.90920860 -3.45745100 0.00000000 0.04313725 0.11764706 0.45490196
v -0.62058920 -3.52072300 0.00000000 0.04313725 0.11764706 0.45490196
v 2.84110300 2.16996700 0.00000000 0.04313725 0.11764706 0.45490196
v -0.32773040 -3.55994600 0.00000000 0.04313725 0.11764706 0.45490196
v 3.01059400 1.92793900 0.00000000 0.04313725 0.11764706 0.45490196
v 3.15951900 1.67274100 0.00000000 0.04313725 0.11764706 0.45490196
v -0.03263306 -3.57485100 0.00000000 0.04313725 0.11764706 0.45490196
v 3.28686200 1.40611700 0.00000000 0.04313725 0.11764706 0.45490196
v 0.26268730 -3.56533600 0.00000000 0.04313725 0.11764706 0.45490196
v 0.55621320 -3.53146600 0.00000000 0.04313725 0.11764706 0.45490196
v 3.39175200 1.12988700 0.00000000 0.04313725 0.11764706 0.45490196
v 3.47347300 0.84593960 0.00000000 0.04313725 0.11764706 0.45490196
v 0.84593960 -3.47347300 0.00000000 0.04313725 0.11764706 0.45490196
v 3.53146600 0.55621320 0.00000000 0.04313725 0.11764706 0.45490196
v 1.12988700 -3.39175200 0.00000000 0.04313725 0.11764706 0.45490196
v 1.40611700 -3.28686200 0.00000000 0.04313725 0.11764706 0.45490196
v 3.56533600 0.26268730 0.00000000 0.04313725 0.11764706 0.45490196
v 1.67274100 -3.15951900 0.00000000 0.04313725 0.11764706 0.45490196
v 3.57485100 -0.03263306 0.00000000 0.04313725 0.11764706 0.45490196
v 3.55994600 -0.32773040 0.00000000 0.04313725 0.11764706 0.45490196
v 1.92793900 -3.01059400 0.00000000 0.04313725 0.11764706 0.45490196
v 3.52072300 -0.62058920 0.00000000 0.04313725 0.11764706 0.45490196
v 2.16996700 -2.84110300 0.00000000 0.04313725 0.11764706 0.45490196
v 2.39717200 -2.65220500 0.00000000 0.04313725 0.11764706 0.45490196
v 3.45745100 -0.90920860 0.00000000 0.04313725 0.11764706 0.45490196
v 2.60800200 -2.44519000 0.00000000 0.04313725 0.11764706 0.45490196
v 3.37056000 -1.19161700 0.00000000 0.04313725 0.11764706 0.45490196
v 3.26064500 -1.46588600 0.00000000 0.04313725 0.11764706 0.45490196
v 2.80101600 -2.22147100 0.00000000 0.04313725 0.11764706 0.45490196
v 3.12845600 -1.73014100 0.00000000 0.04313725 0.11764706 0.45490196
v 2.97489700 -1.98257800 0.00000000 0.04313725 0.11764706 0.45490196
v 47.64908000 9.97688300 -10.50000000 0.04313725 0.11764706 0.45490196
v 47.45404000 10.08841000 -10.50000000 0.04313725 0.11764706 0.45490196
v 47.27219000 10.22037000 -10.50000000 0.04313725 0.11764706 0.45490196
v 47.85504000 9.88710000 -10.50000000 0.04313725 0.11764706 0.45490196
v 47.10569000 10.37121000 -10.50000000 0.04313725 0.11764706 0.45490196
v 48.06950000 9.82011100 -10.50000000 0.04313725 0.11764706 0.45490196
v 46.95646000 10.53918000 -10.50000000 0.04313725 0.11764706 0.45490196
v 48.28994000 9.77670100 -10.50000000 0.04313725 0.11764706 0.45490196
v 46.82627000 10.72229000 -10.50000000 0.04313725 0.11764706 0.45490196
v 48.51378000 9.75738000 -10.50000000 0.04313725 0.11764706 0.45490196
v 46.71665000 10.91841000 -10.50000000 0.04313725 0.11764706 0.45490196
v 48.73840000 9.76237500 -10.50000000 0.04313725 0.11764706 0.45490196
v 46.62887000 11.12523000 -10.50000000 0.04313725 0.11764706 0.45490196
v 48.96117000 9.79162500 -10.50000000 0.04313725 0.11764706 0.45490196
v 46.56396000 11.34032000 -10.50000000 0.04313725 0.11764706 0.45490196
v 49.17946000 9.84479000 -10.50000000 0.04313725 0.11764706 0.45490196
v 46.52270000 11.56118000 -10.50000000 0.04313725 0.11764706 0.45490196
v 49.39073000 9.92124400 -10.50000000 0.04313725 0.11764706 0.45490196
v 46.50555000 11.78520000 -10.50000000 0.04313725 0.11764706 0.45490196
v 49.59250000 10.02009000 -10.50000000 0.04313725 0.11764706 0.45490196
v 46.51272000 12.00976000 -10.50000000 0.04313725 0.11764706 0.45490196
v 49.78239000 10.14018000 -10.50000000 0.04313725 0.11764706 0.45490196
v 46.54413000 12.23223000 -10.50000000 0.04313725 0.11764706 0.45490196
v 49.95818000 10.28009000 -10.50000000 0.04313725 0.11764706 0.45490196
v 46.59941000 12.45000000 -10.50000000 0.04313725 0.11764706 0.45490196
v 50.11782000 10.43819000 -10.50000000 0.04313725 0.11764706 0.45490196
v 50.25943000 10.61262000 -10.50000000 0.04313725 0.11764706 0.45490196
v 50.38135000 10.80133000 -10.50000000 0.04313725 0.11764706 0.45490196
v 50.48216000 11.00213000 -10.50000000 0.04313725 0.11764706 0.45490196
v 50.56066000 11.21265000 -10.50000000 0.04313725 0.11764706 0.45490196
v 50.61594000 11.43042000 -10.50000000 0.04313725 0.11764706 0.45490196
v 50.64735000 11.65289000 -10.50000000 0.04313725 0.11764706 0.45490196
v 50.65452000 11.87745000 -10.50000000 0.04313725 0.11764706 0.45490196
v 50.63737000 12.10147000 -10.50000000 0.04313725 0.11764706 0.45490196
v 50.59611000 12.32232000 -10.50000000 0.04313725 0.11764706 0.45490196
v 46.67791000 12.66052000 -10.50000000 0.04313725 0.11764706 0.45490196
v 48.19890000 13.87102000 -10.50000000 0.04313725 0.11764706 0.45490196
v 47.98061000 13.81785000 -10.50000000 0.04313725 0.11764706 0.45490196
v 47.76934000 13.74140000 -10.50000000 0.04313725 0.11764706 0.45490196
v 47.56757000 13.64255000 -10.50000000 0.04313725 0.11764706 0.45490196
v 47.37768000 13.52247000 -10.50000000 0.04313725 0.11764706 0.45490196
v 47.20189000 13.38256000 -10.50000000 0.04313725 0.11764706 0.45490196
v 47.04225000 13.22446000 -10.50000000 0.04313725 0.11764706 0.45490196
v 46.90064000 13.05003000 -10.50000000 0.04313725 0.11764706 0.45490196
v 46.77872000 12.86131000 -10.50000000 0.04313725 0.11764706 0.45490196
v 50.53120000 12.53742000 -10.50000000 0.04313725 0.11764706 0.45490196
v 48.42167000 13.90027000 -10.50000000 0.04313725 0.11764706 0.45490196
v 50.44342000 12.74424000 -10.50000000 0.04313725 0.11764706 0.45490196
v 48.64629000 13.90526000 -10.50000000 0.04313725 0.11764706 0.45490196
v 50.33380000 12.94035000 -10.50000000 0.04313725 0.11764706 0.45490196
v 48.87013000 13.88594000 -10.50000000 0.04313725 0.11764706 0.45490196
v 50.20361000 13.12347000 -10.50000000 0.04313725 0.11764706 0.45490196
v 49.09057000 13.84253000 -10.50000000 0.04313725 0.11764706 0.45490196
v 50.05438000 13.29143000 -10.50000000 0.04313725 0.11764706 0.45490196
v 49.30503000 13.77555000 -10.50000000 0.04313725 0.11764706 0.45490196
v 49.88788000 13.44228000 -10.50000000 0.04313725 0.11764706 0.45490196
v 49.51099000 13.68576000 -10.50000000 0.04313725 0.11764706 0.45490196
v 49.70603000 13.57424000 -10.50000000 0.04313725 0.11764706 0.45490196
v 45.26066000 10.72148000 0.00000000 0.04313725 0.11764706 0.45490196
v 45.36517000 10.44761000 0.00000405 0.04313725 0.11764706 0.45490196
v 45.49223000 10.18345000 0.00000404 0.04313725 0.11764706 0.45490196
v 45.64095000 9.93085200 0.00000000 0.04313725 0.11764706 0.45490196
v 45.81028000 9.69158100 0.00000000 0.04313725 0.11764706 0.45490196
v 45.99905000 9.46731900 0.00000000 0.04313725 0.11764706 0.45490196
v 46.20591000 9.25963800 0.00000000 0.04313725 0.11764706 0.45490196
v 46.42943000 9.06999700 0.00000000 0.04313725 0.11764706 0.45490196
v 46.66804000 8.89972300 0.00000000 0.04313725 0.11764706 0.45490196
v 46.92005000 8.75001300 0.00000000 0.04313725 0.11764706 0.45490196
v 47.18371000 8.62191700 0.00000000 0.04313725 0.11764706 0.45490196
v 47.45717000 8.51633100 0.00000000 0.04313725 0.11764706 0.45490196
v 47.73850000 8.43399800 0.00000000 0.04313725 0.11764706 0.45490196
v 48.02573000 8.37549500 0.00000000 0.04313725 0.11764706 0.45490196
v 48.31685000 8.34123200 0.00000000 0.04313725 0.11764706 0.45490196
v 48.60981000 8.33144900 0.00000000 0.04313725 0.11764706 0.45490196
v 48.90257000 8.34621600 0.00000000 0.04313725 0.11764706 0.45490196
v 49.19307000 8.38542700 0.00000000 0.04313725 0.11764706 0.45490196
v 49.47926000 8.44881100 0.00000000 0.04313725 0.11764706 0.45490196
v 49.75915000 8.53591800 0.00000000 0.04313725 0.11764706 0.45490196
v 50.03077000 8.64614200 0.00000000 0.04313725 0.11764706 0.45490196
v 50.29221000 8.77870600 -0.00000488 0.04313725 0.11764706 0.45490196
v 50.54164000 8.93268200 -0.00000487 0.04313725 0.11764706 0.45490196
v 50.77731000 9.10699200 0.00000000 0.04313725 0.11764706 0.45490196
v 50.99757000 9.30041100 0.00000000 0.04313725 0.11764706 0.45490196
v 51.20087000 9.51158100 0.00000000 0.04313725 0.11764706 0.45490196
v 51.38579000 9.73902400 0.00000144 0.04313725 0.11764706 0.45490196
v 51.55103000 9.98114200 0.00000144 0.04313725 0.11764706 0.45490196
v 51.69543000 10.23624000 0.00000000 0.04313725 0.11764706 0.45490196
v 51.81798000 10.50252000 0.00000000 0.04313725 0.11764706 0.45490196
v 51.91781000 10.77812000 0.00000000 0.04313725 0.11764706 0.45490196
v 51.99424000 11.06112000 0.00000000 0.04313725 0.11764706 0.45490196
v 52.04671000 11.34952000 0.00000000 0.04313725 0.11764706 0.45490196
v 52.07487000 11.64128000 0.00000000 0.04313725 0.11764706 0.45490196
v 52.07852000 11.93439000 0.00000000 0.04313725 0.11764706 0.45490196
v 52.05762000 12.22678000 0.00000000 0.04313725 0.11764706 0.45490196
v 52.01234000 12.51639000 0.00000000 0.04313725 0.11764706 0.45490196
v 51.94297000 12.80119000 0.00000000 0.04313725 0.11764706 0.45490196
v 51.85002000 13.07919000 0.00000000 0.04313725 0.11764706 0.45490196
v 51.73413000 13.34844000 0.00000000 0.04313725 0.11764706 0.45490196
v 51.59612000 13.60705000 0.00000000 0.04313725 0.11764706 0.45490196
v 51.43696000 13.85320000 -0.00000973 0.04313725 0.11764706 0.45490196
v 51.25775000 14.08517000 -0.00000969 0.04313725 0.11764706 0.45490196
v 51.05976000 14.30133000 0.00000000 0.04313725 0.11764706 0.45490196
v 50.84438000 14.50017000 0.00000000 0.04313725 0.11764706 0.45490196
v 50.61312000 14.68028000 0.00000000 0.04313725 0.11764706 0.45490196
v 50.36759000 14.84042000 -0.00000144 0.04313725 0.11764706 0.45490196
v 50.10953000 14.97944000 -0.00000144 0.04313725 0.11764706 0.45490196
v 49.84074000 15.09639000 0.00000000 0.04313725 0.11764706 0.45490196
v 49.56310000 15.19043000 0.00000000 0.04313725 0.11764706 0.45490196
v 49.27857000 15.26091000 0.00000000 0.04313725 0.11764706 0.45490196
v 48.98914000 15.30733000 0.00000003 0.04313725 0.11764706 0.45490196
v 48.69684000 15.32937000 0.00000003 0.04313725 0.11764706 0.45490196
v 48.40372000 15.32688000 0.00000000 0.04313725 0.11764706 0.45490196
v 48.11184000 15.29987000 0.00000000 0.04313725 0.11764706 0.45490196
v 47.82324000 15.24852000 0.00000000 0.04313725 0.11764706 0.45490196
v 47.53995000 15.17321000 0.00000000 0.04313725 0.11764706 0.45490196
v 47.26396000 15.07446000 0.00000000 0.04313725 0.11764706 0.45490196
v 46.99719000 14.95296000 0.00000000 0.04313725 0.11764706 0.45490196
v 46.74153000 14.80956000 0.00000000 0.04313725 0.11764706 0.45490196
v 46.49877000 14.64528000 0.00000000 0.04313725 0.11764706 0.45490196
v 46.27060000 14.46125000 0.00000000 0.04313725 0.11764706 0.45490196
v 46.05864000 14.25878000 0.00000000 0.04313725 0.11764706 0.45490196
v 45.86435000 14.03928000 0.00000000 0.04313725 0.11764706 0.45490196
v 45.68912000 13.80429000 0.00000000 0.04313725 0.11764706 0.45490196
v 45.53416000 13.55547000 0.00000000 0.04313725 0.11764706 0.45490196
v 45.40057000 13.29455000 0.00000000 0.04313725 0.11764706 0.45490196
v 45.28928000 13.02337000 0.00000000 0.04313725 0.11764706 0.45490196
v 45.20108000 12.74382000 0.00000000 0.04313725 0.11764706 0.45490196
v 45.13657000 12.45788000 0.00000000 0.04313725 0.11764706 0.45490196
v 45.09622000 12.16754000 0.00000000 0.04313725 0.11764706 0.45490196
v 45.08031000 11.87485000 -0.00000405 0.04313725 0.11764706 0.45490196
v 45.08894000 11.58184000 -0.00000404 0.04313725 0.11764706 0.45490196
v 45.12206000 11.29059000 0.00000000 0.04313725 0.11764706 0.45490196
v 45.17943000 11.00313000 0.00000000 0.04313725 0.11764706 0.45490196
v 46.77872000 12.86131000 0.00000000 0.04313725 0.11764706 0.45490196
v 46.90064000 13.05003000 -0.00000000 0.04313725 0.11764706 0.45490196
v 46.67791000 12.66052000 -0.00000000 0.04313725 0.11764706 0.45490196
v 47.04225000 13.22446000 0.00000000 0.04313725 0.11764706 0.45490196
v 46.59941000 12.45000000 0.00000000 0.04313725 0.11764706 0.45490196
v 47.20189000 13.38256000 -0.00000000 0.04313725 0.11764706 0.45490196
v 46.54413000 12.23223000 -0.00000000 0.04313725 0.11764706 0.45490196
v 47.37768000 13.52247000 0.00000000 0.04313725 0.11764706 0.45490196
v 46.51272000 12.00976000 -0.00000000 0.04313725 0.11764706 0.45490196
v 47.56757000 13.64255000 0.00000000 0.04313725 0.11764706 0.45490196
v 46.50555000 11.78520000 0.00000000 0.04313725 0.11764706 0.45490196
v 47.76934000 13.74140000 -0.00000000 0.04313725 0.11764706 0.45490196
v 46.52270000 11.56118000 -0.00000000 0.04313725 0.11764706 0.45490196
v 47.98061000 13.81785000 0.00000000 0.04313725 0.11764706 0.45490196
v 46.56396000 11.34032000 -0.00000000 0.04313725 0.11764706 0.45490196
v 48.19890000 13.87102000 -0.00000000 0.04313725 0.11764706 0.45490196
v 46.62887000 11.12523000 0.00000000 0.04313725 0.11764706 0.45490196
v 48.42167000 13.90027000 0.00000000 0.04313725 0.11764706 0.45490196
v 46.71665000 10.91841000 -0.00000000 0.04313725 0.11764706 0.45490196
v 48.64629000 13.90526000 -0.00000000 0.04313725 0.11764706 0.45490196
v 46.82627000 10.72229000 -0.00000000 0.04313725 0.11764706 0.45490196
v 48.87013000 13.88594000 0.00000000 0.04313725 0.11764706 0.45490196
v 46.95646000 10.53918000 0.00000000 0.04313725 0.11764706 0.45490196
v 49.09057000 13.84253000 0.00000000 0.04313725 0.11764706 0.45490196
v 47.10569000 10.37121000 -0.00000000 0.04313725 0.11764706 0.45490196
v 49.30503000 13.77555000 -0.00000000 0.04313725 0.11764706 0.45490196
v 47.27219000 10.22037000 0.00000000 0.04313725 0.11764706 0.45490196
v 49.51099000 13.68576000 0.00000000 0.04313725 0.11764706 0.45490196
v 47.45404000 10.08841000 -0.00000000 0.04313725 0.11764706 0.45490196
v 49.70603000 13.57424000 -0.00000000 0.04313725 0.11764706 0.45490196
v 47.64908000 9.97688300 0.00000000 0.04313725 0.11764706 0.45490196
v 49.88788000 13.44228000 0.00000000 0.04313725 0.11764706 0.45490196
v 47.85504000 9.88710000 -0.00000000 0.04313725 0.11764706 0.45490196
v 50.05438000 13.29143000 -0.00000000 0.04313725 0.11764706 0.45490196
v 48.06950000 9.82011100 0.00000000 0.04313725 0.11764706 0.45490196
v 50.20361000 13.12347000 0.00000000 0.04313725 0.11764706 0.45490196
v 48.28994000 9.77670100 0.00000000 0.04313725 0.11764706 0.45490196
v 50.33380000 12.94035000 -0.00000000 0.04313725 0.11764706 0.45490196
v 48.51378000 9.75738000 -0.00000000 0.04313725 0.11764706 0.45490196
v 50.44342000 12.74424000 -0.00000000 0.04313725 0.11764706 0.45490196
v 48.73840000 9.76237500 0.00000000 0.04313725 0.11764706 0.45490196
v 48.96117000 9.79162500 -0.00000000 0.04313725 0.11764706 0.45490196
v 50.53120000 12.53742000 0.00000000 0.04313725 0.11764706 0.45490196
v 50.59611000 12.32232000 -0.00000000 0.04313725 0.11764706 0.45490196
v 49.17946000 9.84479000 0.00000000 0.04313725 0.11764706 0.45490196
v 50.63737000 12.10147000 -0.00000000 0.04313725 0.11764706 0.45490196
v 49.39073000 9.92124400 -0.00000000 0.04313725 0.11764706 0.45490196
v 50.65452000 11.87745000 0.00000000 0.04313725 0.11764706 0.45490196
v 49.59250000 10.02009000 0.00000000 0.04313725 0.11764706 0.45490196
v 50.64735000 11.65289000 -0.00000000 0.04313725 0.11764706 0.45490196
v 49.78239000 10.14018000 0.00000000 0.04313725 0.11764706 0.45490196
v 50.61594000 11.43042000 -0.00000000 0.04313725 0.11764706 0.45490196
v 49.95818000 10.28009000 -0.00000000 0.04313725 0.11764706 0.45490196
v 50.56066000 11.21265000 0.00000000 0.04313725 0.11764706 0.45490196
v 50.11782000 10.43819000 0.00000000 0.04313725 0.11764706 0.45490196
v 50.48216000 11.00213000 -0.00000000 0.04313725 0.11764706 0.45490196
v 50.25943000 10.61262000 -0.00000000 0.04313725 0.11764706 0.45490196
v 50.38135000 10.80133000 0.00000000 0.04313725 0.11764706 0.45490196
f 1 2 3
f 4 2 1
f 4 5 2
f 6 1 3
f 6 3 7
f 6 7 8
f 9 10 5
f 9 5 4
f 11 12 10
f 11 10 9
f 13 6 8
f 13 8 14
f 15 16 12
f 15 12 11
f 17 13 14
f 17 14 18
f 19 17 18
f 19 18 20
f 21 22 23
f 21 23 16
f 21 16 15
f 24 19 20
f 24 20 25
f 26 27 22
f 26 22 21
f 28 27 26
f 28 29 27
f 30 24 25
f 30 25 31
f 30 31 32
f 33 29 28
f 33 34 29
f 35 30 32
f 35 32 36
f 37 34 33
f 37 38 34
f 39 36 40
f 39 35 36
f 41 40 42
f 41 39 40
f 43 38 37
f 43 44 38
f 45 44 43
f 46 42 47
f 46 41 42
f 48 46 47
f 48 47 49
f 50 44 45
f 51 49 52
f 51 52 53
f 51 48 49
f 54 44 50
f 55 53 56
f 55 51 53
f 57 44 54
f 58 44 57
f 59 56 60
f 59 55 56
f 61 60 62
f 61 59 60
f 63 44 58
f 64 62 65
f 64 61 62
f 66 44 63
f 67 44 66
f 68 65 69
f 68 64 65
f 70 68 69
f 71 68 70
f 72 44 67
f 73 71 70
f 74 71 73
f 75 74 73
f 76 74 75
f 77 78 76
f 77 76 75
f 79 80 78
f 79 78 77
f 81 80 79
f 81 82 80
f 83 82 81
f 84 82 83
f 84 85 82
f 86 87 85
f 86 85 84
f 88 89 87
f 88 87 86
f 90 91 89
f 90 89 88
f 92 93 91
f 92 91 90
f 94 95 96
f 94 96 97
f 94 97 98
f 94 98 99
f 94 99 100
f 94 100 101
f 94 101 93
f 94 93 92
f 102 95 94
f 103 102 94
f 104 44 72
f 105 72 106
f 107 104 72
f 107 72 105
f 108 105 106
f 108 106 109
f 110 104 107
f 111 108 109
f 111 109 112
f 113 104 110
f 114 112 115
f 114 111 112
f 116 104 113
f 117 115 118
f 117 114 115
f 119 104 116
f 120 118 121
f 120 117 118
f 122 104 119
f 123 121 124
f 123 120 121
f 125 104 122
f 126 124 127
f 126 123 124
f 128 104 125
f 129 127 130
f 129 126 127
f 131 104 128
f 132 130 133
f 132 133 134
f 132 129 130
f 135 104 131
f 135 136 104
f 137 134 138
f 137 132 134
f 139 136 135
f 139 140 136
f 141 138 142
f 141 137 138
f 143 140 139
f 143 144 140
f 145 142 146
f 145 141 142
f 147 144 143
f 147 148 144
f 149 146 150
f 149 145 146
f 151 148 147
f 151 152 153
f 151 153 148
f 154 150 155
f 154 149 150
f 156 152 151
f 156 157 152
f 158 155 159
f 158 154 155
f 160 157 156
f 160 161 157
f 162 159 163
f 162 158 159
f 164 165 161
f 164 161 160
f 166 163 167
f 166 162 163
f 168 165 164
f 168 169 165
f 170 167 103
f 170 166 167
f 171 172 169
f 171 169 168
f 173 170 103
f 174 171 175
f 174 172 171
f 176 175 177
f 176 174 175
f 178 177 179
f 178 176 177
f 180 178 179
f 180 179 181
f 182 180 181
f 183 182 181
f 183 181 184
f 185 183 184
f 185 184 186
f 187 185 186
f 187 186 188
f 189 188 190
f 189 187 188
f 191 189 190
f 191 190 192
f 193 191 192
f 194 173 103
f 194 195 196
f 194 196 197
f 194 197 198
f 194 198 199
f 194 199 200
f 194 103 94
f 194 200 201
f 194 201 202
f 194 202 203
f 194 203 173
f 204 192 205
f 204 193 192
f 206 195 194
f 206 207 195
f 208 205 209
f 208 204 205
f 210 211 207
f 210 207 206
f 212 209 213
f 212 208 209
f 214 215 211
f 214 211 210
f 216 213 217
f 216 212 213
f 218 219 215
f 218 215 214
f 220 217 221
f 220 216 217
f 222 219 218
f 223 221 224
f 223 220 221
f 225 219 222
f 225 226 219
f 227 223 224
f 228 226 225
f 228 229 226
f 230 224 231
f 230 227 224
f 232 229 228
f 232 233 229
f 234 230 231
f 234 231 235
f 236 233 232
f 236 237 233
f 238 234 235
f 238 235 239
f 240 237 236
f 240 241 237
f 242 238 239
f 242 239 241
f 243 241 240
f 243 242 241
f 244 245 246
f 244 246 247
f 248 244 247
f 248 247 249
f 248 249 250
f 251 248 250
f 252 250 253
f 252 251 250
f 254 253 255
f 254 252 253
f 254 255 256
f 257 254 256
f 256 258 257
f 256 259 258
f 260 261 258
f 259 260 258
f 260 262 263
f 260 263 261
f 262 264 263
f 262 265 264
f 265 266 267
f 265 267 264
f 268 269 267
f 266 268 267
f 268 270 271
f 268 271 269
f 272 273 271
f 270 272 271
f 272 274 273
f 272 275 274
f 276 277 274
f 275 276 274
f 278 279 280
f 278 280 281
f 279 282 280
f 279 283 282
f 284 285 282
f 283 284 282
f 284 286 287
f 284 287 285
f 287 286 288
f 289 287 288
f 290 289 288
f 290 288 291
f 290 291 292
f 293 290 292
f 294 293 292
f 294 292 295
f 296 294 295
f 296 295 297
f 298 297 299
f 298 296 297
f 300 299 301
f 300 298 299
f 302 300 301
f 302 301 303
f 304 302 303
f 304 303 305
f 306 304 305
f 306 305 307
f 306 307 308
f 309 306 308
f 310 308 311
f 310 309 308
f 312 311 313
f 312 310 311
f 312 313 314
f 315 312 314
f 314 316 315
f 314 317 316
f 318 319 316
f 317 318 316
f 318 320 321
f 318 321 319
f 320 322 321
f 320 323 322
f 323 324 325
f 323 325 322
f 326 327 325
f 324 326 325
f 326 328 329
f 326 329 327
f 330 331 329
f 328 330 329
f 330 332 331
f 330 333 332
f 334 335 332
f 333 334 332
f 334 336 337
f 334 337 335
f 336 338 339
f 336 339 337
f 338 340 339
f 338 341 340
f 342 343 340
f 341 342 340
f 342 344 345
f 342 345 343
f 345 344 346
f 347 345 346
f 348 347 346
f 348 346 349
f 348 349 350
f 351 348 350
f 351 350 352
f 353 351 352
f 354 353 352
f 354 352 355
f 356 355 357
f 356 354 355
f 245 358 359
f 245 359 246
f 276 278 281
f 276 281 277
f 360 44 104
f 360 361 44
f 362 360 104
f 362 104 136
f 362 136 140
f 363 362 140
f 363 140 144
f 364 363 144
f 365 364 144
f 365 144 148
f 365 148 153
f 366 365 153
f 367 366 153
f 367 153 152
f 367 152 157
f 368 367 157
f 369 368 157
f 369 157 161
f 370 369 161
f 370 161 165
f 371 370 165
f 371 165 169
f 371 169 172
f 372 371 172
f 172 174 373
f 172 373 372
f 174 176 374
f 174 374 373
f 178 375 374
f 176 178 374
f 180 376 375
f 178 180 375
f 180 182 377
f 180 377 376
f 183 378 377
f 182 183 377
f 183 185 379
f 183 379 378
f 187 380 379
f 185 187 379
f 187 189 381
f 187 381 380
f 191 382 381
f 189 191 381
f 191 193 383
f 191 383 382
f 193 204 384
f 193 384 383
f 204 208 385
f 204 385 384
f 208 212 386
f 208 386 385
f 212 216 387
f 212 387 386
f 216 220 388
f 216 388 387
f 220 223 389
f 220 389 388
f 227 390 389
f 223 227 389
f 227 230 391
f 227 391 390
f 230 234 392
f 230 392 391
f 238 393 392
f 234 238 392
f 242 394 393
f 238 242 393
f 243 395 394
f 242 243 394
f 395 243 240
f 396 395 240
f 397 396 240
f 397 240 236
f 397 236 232
f 398 397 232
f 398 232 228
f 399 398 228
f 399 228 225
f 400 399 225
f 401 400 225
f 401 225 222
f 401 222 218
f 402 401 218
f 403 402 218
f 403 218 214
f 403 214 210
f 404 403 210
f 404 210 206
f 405 404 206
f 405 206 194
f 406 405 194
f 407 406 194
f 407 194 94
f 407 94 92
f 408 407 92
f 408 92 90
f 409 408 90
f 409 90 88
f 410 409 88
f 411 410 88
f 411 88 86
f 412 411 86
f 412 86 84
f 412 84 83
f 413 412 83
f 414 413 83
f 414 83 81
f 414 81 79
f 415 414 79
f 416 415 79
f 416 79 77
f 417 416 77
f 417 77 75
f 417 75 73
f 418 417 73
f 73 70 419
f 73 419 418
f 70 69 420
f 70 420 419
f 69 421 420
f 69 65 421
f 62 422 421
f 65 62 421
f 62 60 423
f 62 423 422
f 60 424 423
f 60 56 424
f 53 425 424
f 56 53 424
f 52 426 425
f 53 52 425
f 52 49 427
f 52 427 426
f 49 428 427
f 49 47 428
f 42 429 428
f 47 42 428
f 40 430 429
f 42 40 429
f 36 431 430
f 40 36 430
f 36 32 432
f 36 432 431
f 32 433 432
f 32 31 433
f 31 25 434
f 31 434 433
f 20 435 434
f 25 20 434
f 20 18 436
f 20 436 435
f 18 437 436
f 18 14 437
f 8 438 437
f 14 8 437
f 8 7 439
f 8 439 438
f 7 440 439
f 7 3 440
f 3 441 440
f 3 2 441
f 441 2 5
f 442 441 5
f 443 5 10
f 443 442 5
f 444 10 12
f 444 443 10
f 444 12 16
f 445 444 16
f 446 16 23
f 446 445 16
f 446 23 22
f 447 446 22
f 448 22 27
f 448 447 22
f 449 27 29
f 449 448 27
f 449 29 34
f 450 449 34
f 450 34 38
f 451 450 38
f 451 38 44
f 361 451 44
f 358 357 359
f 358 356 357
f 257 452 453
f 258 454 452
f 258 452 257
f 254 453 455
f 254 455 456
f 254 257 453
f 261 457 454
f 261 454 258
f 252 456 458
f 252 254 456
f 263 459 460
f 263 460 457
f 263 457 261
f 251 458 461
f 251 252 458
f 264 462 459
f 264 459 263
f 248 251 461
f 248 461 463
f 248 463 464
f 267 465 462
f 267 462 264
f 244 248 464
f 244 464 466
f 269 465 267
f 269 467 468
f 269 468 465
f 245 244 466
f 245 466 469
f 271 467 269
f 271 470 467
f 358 245 469
f 358 469 471
f 358 471 472
f 273 470 271
f 273 473 470
f 356 358 472
f 356 472 474
f 274 473 273
f 274 475 476
f 274 476 473
f 354 356 474
f 354 474 477
f 277 475 274
f 277 478 475
f 353 479 480
f 353 354 477
f 353 477 479
f 281 478 277
f 281 481 478
f 351 480 482
f 351 353 480
f 280 481 281
f 280 483 484
f 280 484 481
f 348 482 485
f 348 351 482
f 282 486 483
f 282 483 280
f 347 485 487
f 347 348 485
f 285 486 282
f 488 347 487
f 489 486 285
f 345 347 488
f 287 489 285
f 490 345 488
f 491 489 287
f 343 345 490
f 289 491 287
f 492 340 343
f 492 343 490
f 493 491 289
f 494 289 290
f 494 493 289
f 495 339 340
f 495 340 492
f 496 290 293
f 496 494 290
f 497 339 495
f 498 337 339
f 498 339 497
f 499 496 293
f 499 293 294
f 500 337 498
f 500 335 337
f 501 499 294
f 502 294 296
f 502 501 294
f 503 335 500
f 503 332 335
f 504 296 298
f 504 502 296
f 505 332 503
f 506 331 332
f 506 332 505
f 507 298 300
f 507 504 298
f 508 507 300
f 509 329 331
f 509 331 506
f 510 300 302
f 510 508 300
f 511 327 329
f 511 329 509
f 512 327 511
f 513 302 304
f 513 510 302
f 514 325 327
f 514 327 512
f 515 304 306
f 515 513 304
f 516 515 306
f 517 322 325
f 517 325 514
f 518 306 309
f 518 516 306
f 519 321 322
f 519 322 517
f 520 321 519
f 521 309 310
f 521 518 309
f 522 319 321
f 522 321 520
f 523 310 312
f 523 521 310
f 524 523 312
f 525 316 319
f 525 319 522
f 526 312 315
f 526 524 312
f 527 315 316
f 527 316 525
f 527 526 315
f 472 46 48
f 474 472 48
f 474 48 51
f 477 474 51
f 479 51 55
f 479 477 51
f 479 55 59
f 480 479 59
f 482 59 61
f 482 480 59
f 485 61 64
f 485 482 61
f 485 64 68
f 487 485 68
f 487 68 71
f 488 487 71
f 71 74 490
f 71 490 488
f 74 76 492
f 74 492 490
f 78 495 492
f 76 78 492
f 80 497 495
f 78 80 495
f 80 82 498
f 80 498 497
f 85 500 498
f 82 85 498
f 85 87 503
f 85 503 500
f 87 89 505
f 87 505 503
f 91 506 505
f 89 91 505
f 91 93 509
f 91 509 506
f 93 101 511
f 93 511 509
f 100 512 511
f 101 100 511
f 99 514 512
f 100 99 512
f 99 98 517
f 99 517 514
f 97 519 517
f 98 97 517
f 97 96 520
f 97 520 519
f 96 95 522
f 96 522 520
f 102 525 522
f 95 102 522
f 103 527 525
f 102 103 525
f 103 167 526
f 103 526 527
f 524 167 163
f 524 526 167
f 524 163 159
f 523 524 159
f 523 159 155
f 521 523 155
f 518 155 150
f 518 521 155
f 518 150 146
f 516 518 146
f 515 146 142
f 515 516 146
f 513 142 138
f 513 515 142
f 513 138 134
f 510 513 134
f 510 134 133
f 508 510 133
f 507 133 130
f 507 508 133
f 507 130 127
f 504 507 127
f 504 127 124
f 502 504 124
f 501 124 121
f 501 502 124
f 501 121 118
f 499 501 118
f 496 118 115
f 496 499 118
f 494 115 112
f 494 496 115
f 494 112 109
f 493 494 109
f 493 109 106
f 491 493 106
f 106 72 489
f 106 489 491
f 72 67 486
f 72 486 489
f 66 483 486
f 67 66 486
f 63 484 483
f 66 63 483
f 63 58 481
f 63 481 484
f 57 478 481
f 58 57 481
f 57 54 475
f 57 475 478
f 54 50 476
f 54 476 475
f 45 473 476
f 50 45 476
f 45 43 470
f 45 470 473
f 43 37 467
f 43 467 470
f 33 468 467
f 37 33 467
f 28 465 468
f 33 28 468
f 28 26 462
f 28 462 465
f 26 21 459
f 26 459 462
f 21 15 460
f 21 460 459
f 15 11 457
f 15 457 460
f 9 454 457
f 11 9 457
f 4 452 454
f 9 4 454
f 4 1 453
f 4 453 452
f 455 1 6
f 455 453 1
f 455 6 13
f 456 455 13
f 456 13 17
f 458 456 17
f 461 17 19
f 461 458 17
f 461 19 24
f 463 461 24
f 464 24 30
f 464 463 24
f 466 30 35
f 466 464 30
f 466 35 39
f 469 466 39
f 469 39 41
f 471 469 41
f 472 41 46
f 472 471 41
f 344 418 419
f 342 418 344
f 342 416 417
f 342 417 418
f 346 344 419
f 346 419 420
f 346 420 421
f 341 416 342
f 341 415 416
f 349 346 421
f 349 421 422
f 349 422 423
f 338 415 341
f 338 413 414
f 338 414 415
f 350 349 423
f 350 423 424
f 336 412 413
f 336 413 338
f 352 350 424
f 352 424 425
f 352 425 426
f 334 410 411
f 334 411 412
f 334 412 336
f 355 352 426
f 355 426 427
f 333 410 334
f 333 409 410
f 357 428 429
f 357 355 427
f 357 427 428
f 330 407 408
f 330 408 409
f 330 409 333
f 359 429 430
f 359 357 429
f 328 407 330
f 246 430 431
f 246 431 432
f 246 359 430
f 326 407 328
f 247 432 433
f 247 246 432
f 324 407 326
f 249 433 434
f 249 434 435
f 249 247 433
f 323 407 324
f 250 435 436
f 250 249 435
f 320 407 323
f 253 436 437
f 253 437 438
f 253 250 436
f 318 407 320
f 255 438 439
f 255 253 438
f 440 255 439
f 317 407 318
f 256 255 440
f 314 407 317
f 441 256 440
f 259 256 441
f 313 407 314
f 442 259 441
f 311 407 313
f 443 260 259
f 443 259 442
f 444 262 260
f 444 260 443
f 445 262 444
f 446 265 262
f 446 262 445
f 447 265 446
f 447 266 265
f 448 266 447
f 449 266 448
f 449 268 266
f 450 268 449
f 450 270 268
f 451 270 450
f 361 270 451
f 361 291 288
f 361 288 286
f 361 286 284
f 361 284 283
f 361 283 279
f 361 279 278
f 361 278 276
f 361 276 275
f 361 275 272
f 361 272 270
f 406 407 311
f 528 406 529
f 530 529 406
f 531 406 528
f 532 530 406
f 532 406 311
f 533 406 531
f 534 532 311
f 534 311 308
f 534 308 307
f 535 406 533
f 536 534 307
f 536 307 305
f 537 406 535
f 538 536 305
f 538 305 303
f 539 406 537
f 540 538 303
f 541 406 539
f 542 540 303
f 542 303 301
f 543 406 541
f 543 404 405
f 543 405 406
f 544 301 299
f 544 542 301
f 545 404 543
f 545 403 404
f 546 544 299
f 546 299 297
f 546 297 295
f 547 401 402
f 547 402 403
f 547 403 545
f 548 546 295
f 548 295 292
f 549 401 547
f 549 400 401
f 550 548 292
f 550 292 291
f 551 398 399
f 551 399 400
f 551 400 549
f 552 550 291
f 553 398 551
f 553 397 398
f 554 396 397
f 554 397 553
f 395 396 554
f 555 395 554
f 394 395 555
f 556 394 555
f 393 394 556
f 392 393 556
f 392 556 557
f 391 392 557
f 390 391 557
f 390 557 558
f 389 390 558
f 389 558 559
f 388 389 559
f 387 559 560
f 387 388 559
f 386 560 561
f 386 387 560
f 385 386 561
f 384 561 562
f 384 385 561
f 360 563 552
f 360 291 361
f 360 564 565
f 360 552 291
f 360 565 566
f 360 566 567
f 360 567 568
f 360 568 569
f 360 569 570
f 360 570 571
f 360 571 572
f 360 572 563
f 383 562 573
f 383 384 562
f 362 564 360
f 382 383 573
f 363 564 362
f 363 574 564
f 381 573 575
f 381 382 573
f 364 576 574
f 364 574 363
f 380 575 577
f 380 381 575
f 365 576 364
f 379 380 577
f 366 576 365
f 366 578 576
f 378 577 579
f 378 379 577
f 367 580 578
f 367 578 366
f 377 579 581
f 377 378 579
f 368 580 367
f 376 377 581
f 369 582 580
f 369 580 368
f 375 581 583
f 375 376 581
f 370 582 369
f 370 584 582
f 374 375 583
f 371 584 370
f 373 374 583
f 373 583 585
f 372 373 585
f 372 584 371
f 372 585 584
f 586 137 141
f 587 586 141
f 587 141 145
f 588 587 145
f 589 588 145
f 589 145 149
f 590 149 154
f 590 589 149
f 590 154 158
f 591 590 158
f 591 158 162
f 592 591 162
f 593 592 162
f 593 162 166
f 593 166 170
f 594 593 170
f 173 595 594
f 170 173 594
f 173 203 596
f 173 596 595
f 202 597 596
f 203 202 596
f 202 201 598
f 202 598 597
f 200 599 598
f 201 200 598
f 199 600 599
f 200 199 599
f 199 198 601
f 199 601 600
f 198 602 601
f 198 197 602
f 197 196 603
f 197 603 602
f 196 195 604
f 196 604 603
f 207 605 604
f 195 207 604
f 207 211 606
f 207 606 605
f 211 607 606
f 211 215 607
f 215 608 607
f 215 219 608
f 219 226 609
f 219 609 608
f 226 229 610
f 226 610 609
f 233 611 610
f 229 233 610
f 233 237 612
f 233 612 611
f 237 241 613
f 237 613 612
f 614 241 239
f 614 613 241
f 615 239 235
f 615 614 239
f 616 235 231
f 616 615 235
f 616 231 224
f 617 616 224
f 617 224 221
f 618 617 221
f 619 221 217
f 619 618 221
f 619 217 213
f 620 619 213
f 621 213 209
f 621 620 213
f 621 209 205
f 622 621 205
f 623 205 192
f 623 622 205
f 623 192 190
f 624 623 190
f 625 190 188
f 625 624 190
f 626 188 186
f 626 625 188
f 627 626 186
f 627 186 184
f 627 184 181
f 628 627 181
f 628 181 179
f 629 628 179
f 629 179 177
f 630 629 177
f 631 177 175
f 631 630 177
f 632 631 175
f 632 175 171
f 168 633 632
f 171 168 632
f 164 634 633
f 168 164 633
f 160 635 634
f 164 160 634
f 156 636 635
f 160 156 635
f 156 151 637
f 156 637 636
f 151 147 638
f 151 638 637
f 147 143 639
f 147 639 638
f 143 139 640
f 143 640 639
f 135 641 640
f 139 135 640
f 131 642 641
f 135 131 641
f 128 643 642
f 131 128 642
f 125 644 643
f 128 125 643
f 125 122 645
f 125 645 644
f 122 119 646
f 122 646 645
f 116 647 646
f 119 116 646
f 116 648 647
f 116 113 648
f 110 649 648
f 113 110 648
f 110 107 650
f 110 650 649
f 107 105 651
f 107 651 650
f 652 651 105
f 652 105 108
f 653 108 111
f 653 652 108
f 654 111 114
f 654 653 111
f 654 114 117
f 655 654 117
f 656 117 120
f 656 655 117
f 657 656 120
f 657 120 123
f 658 657 123
f 658 123 126
f 658 126 129
f 659 658 129
f 659 129 132
f 660 659 132
f 586 132 137
f 586 660 132
f 661 650 651
f 661 651 652
f 662 649 650
f 662 650 661
f 663 652 653
f 663 661 652
f 664 648 649
f 664 649 662
f 665 653 654
f 665 663 653
f 666 646 647
f 666 647 648
f 666 648 664
f 667 654 655
f 667 665 654
f 668 645 646
f 668 646 666
f 669 667 655
f 669 655 656
f 669 656 657
f 670 644 645
f 670 645 668
f 671 657 658
f 671 669 657
f 672 644 670
f 672 643 644
f 673 658 659
f 673 671 658
f 674 643 672
f 674 641 642
f 674 642 643
f 675 659 660
f 675 660 586
f 675 673 659
f 676 641 674
f 676 640 641
f 677 586 587
f 677 675 586
f 678 639 640
f 678 640 676
f 679 677 587
f 679 587 588
f 680 637 638
f 680 638 639
f 680 639 678
f 681 679 588
f 681 588 589
f 681 589 590
f 682 636 637
f 682 637 680
f 683 681 590
f 683 590 591
f 684 636 682
f 684 635 636
f 685 683 591
f 685 591 592
f 686 634 635
f 686 635 684
f 633 634 686
f 687 592 593
f 687 685 592
f 688 633 686
f 689 593 594
f 689 687 593
f 632 633 688
f 690 632 688
f 595 691 689
f 595 689 594
f 631 632 690
f 692 631 690
f 596 693 691
f 596 691 595
f 630 692 694
f 630 631 692
f 597 695 693
f 597 693 596
f 629 630 694
f 598 695 597
f 628 694 696
f 628 629 694
f 599 695 598
f 599 697 695
f 627 696 698
f 627 628 696
f 600 697 599
f 600 699 697
f 626 698 700
f 626 627 698
f 601 701 699
f 601 699 600
f 625 626 700
f 602 702 701
f 602 701 601
f 624 700 703
f 624 625 700
f 603 702 602
f 623 703 704
f 623 624 703
f 604 705 702
f 604 702 603
f 622 704 706
f 622 623 704
f 605 705 604
f 605 707 705
f 621 706 708
f 621 622 706
f 606 707 605
f 606 709 707
f 620 621 708
f 607 709 606
f 619 708 710
f 619 620 708
f 608 711 709
f 608 709 607
f 618 619 710
f 618 710 712
f 609 713 711
f 609 711 608
f 617 712 714
f 617 618 712
f 610 715 713
f 610 713 609
f 616 617 714
f 611 715 610
f 615 714 716
f 615 616 714
f 612 717 715
f 612 715 611
f 614 716 718
f 614 615 716
f 613 718 717
f 613 614 718
f 613 717 612
f 673 544 546
f 671 673 546
f 669 546 548
f 669 671 546
f 667 548 550
f 667 669 548
f 667 550 552
f 665 667 552
f 663 552 563
f 663 665 552
f 663 563 572
f 661 663 572
f 572 571 662
f 572 662 661
f 570 664 662
f 571 570 662
f 570 569 666
f 570 666 664
f 568 668 666
f 569 568 666
f 568 567 670
f 568 670 668
f 567 566 672
f 567 672 670
f 565 674 672
f 566 565 672
f 565 564 676
f 565 676 674
f 574 678 676
f 564 574 676
f 574 576 680
f 574 680 678
f 576 578 682
f 576 682 680
f 580 684 682
f 578 580 682
f 580 582 686
f 580 686 684
f 584 688 686
f 582 584 686
f 584 585 690
f 584 690 688
f 690 585 583
f 692 690 583
f 694 583 581
f 694 692 583
f 694 581 579
f 696 694 579
f 698 579 577
f 698 696 579
f 700 577 575
f 700 698 577
f 700 575 573
f 703 700 573
f 704 573 562
f 704 703 573
f 706 562 561
f 706 704 562
f 706 561 560
f 708 706 560
f 710 560 559
f 710 708 560
f 712 559 558
f 712 710 559
f 712 558 557
f 714 712 557
f 716 557 556
f 716 714 557
f 716 556 555
f 718 716 555
f 555 554 717
f 555 717 718
f 553 715 717
f 554 553 717
f 553 551 713
f 553 713 715
f 549 711 713
f 551 549 713
f 549 547 709
f 549 709 711
f 547 545 707
f 547 707 709
f 543 705 707
f 545 543 707
f 543 541 702
f 543 702 705
f 539 701 702
f 541 539 702
f 539 537 699
f 539 699 701
f 537 535 697
f 537 697 699
f 533 695 697
f 535 533 697
f 533 531 693
f 533 693 695
f 528 691 693
f 531 528 693
f 528 529 689
f 528 689 691
f 689 529 530
f 687 689 530
f 685 530 532
f 685 687 530
f 685 532 534
f 683 685 534
f 681 534 536
f 681 683 534
f 679 536 538
f 679 681 536
f 679 538 540
f 677 679 540
f 673 542 544
f 673 675 542
f 675 677 540
f 675 540 542

