# https://github.com/mikedh/trimesh

o geometry_1
v -1.80131900 1.02998700 0.00000000 0.37254902 0.37254902 0.37254902
v -4.22572700 2.67268300 0.00000000 0.37254902 0.37254902 0.37254902
v -4.40187500 2.37139300 0.00000005 0.37254902 0.37254902 0.37254902
v -1.67939900 1.21870700 -0.00000000 0.37254902 0.37254902 0.37254902
v -3.81263600 3.23478100 -0.00003844 0.37254902 0.37254902 0.37254902
v -4.02899500 2.96094500 -0.00004704 0.37254902 0.37254902 0.37254902
v -1.90212100 0.82919280 -0.00000000 0.37254902 0.37254902 0.37254902
v -4.55656800 2.05856300 0.00000001 0.37254902 0.37254902 0.37254902
v -4.68906500 1.73570600 -0.00014548 0.37254902 0.37254902 0.37254902
v -1.53778800 1.39313700 0.00000000 0.37254902 0.37254902 0.37254902
v -3.57770300 3.49285600 -0.00000000 0.37254902 0.37254902 0.37254902
v -1.98062200 0.61867670 0.00000000 0.37254902 0.37254902 0.37254902
v -4.79872200 1.40437800 0.00000000 0.37254902 0.37254902 0.37254902
v -4.88499600 1.06621000 0.00000000 0.37254902 0.37254902 0.37254902
v -1.37814900 1.55123500 -0.00000000 0.37254902 0.37254902 0.37254902
v -3.05677300 3.95678400 -0.00000000 0.37254902 0.37254902 0.37254902
v -3.32533800 3.73391600 -0.00001713 0.37254902 0.37254902 0.37254902
v -2.03590200 0.40090700 -0.00000000 0.37254902 0.37254902 0.37254902
v -4.94747000 0.72286690 -0.00000568 0.37254902 0.37254902 0.37254902
v -1.20235200 1.69114600 0.00000000 0.37254902 0.37254902 0.37254902
v -2.77331500 4.16037500 -0.00004677 0.37254902 0.37254902 0.37254902
v -2.06731400 0.17843710 -0.00000000 0.37254902 0.37254902 0.37254902
v -4.98584400 0.37598460 -0.00010828 0.37254902 0.37254902 0.37254902
v -4.99992500 0.02726273 0.00000000 0.37254902 0.37254902 0.37254902
v -1.01245900 1.81122900 -0.00000000 0.37254902 0.37254902 0.37254902
v -2.16731400 4.50585700 0.00000000 0.37254902 0.37254902 0.37254902
v -2.47634500 4.34369800 -0.00004191 0.37254902 0.37254902 0.37254902
v -2.07448700 -0.04612479 0.00000000 0.37254902 0.37254902 0.37254902
v -4.98964800 -0.32157090 -0.00007873 0.37254902 0.37254902 0.37254902
v -0.81069580 1.91007800 0.00000000 0.37254902 0.37254902 0.37254902
v -1.84772200 4.64606500 -0.00000596 0.37254902 0.37254902 0.37254902
v -2.05733900 -0.27014590 -0.00000000 0.37254902 0.37254902 0.37254902
v -4.95506300 -0.66884130 -0.00023044 0.37254902 0.37254902 0.37254902
v -4.89633600 -1.01286600 -0.00007796 0.37254902 0.37254902 0.37254902
v -0.59942770 1.98653300 0.00000000 0.37254902 0.37254902 0.37254902
v -1.18313200 4.85800400 0.00000000 0.37254902 0.37254902 0.37254902
v -1.51912700 4.76363800 -0.00000546 0.37254902 0.37254902 0.37254902
v -2.01607200 -0.49099990 -0.00000000 0.37254902 0.37254902 0.37254902
v -4.81375300 -1.35195500 0.00000001 0.37254902 0.37254902 0.37254902
v -0.38113190 2.03969700 -0.00000000 0.37254902 0.37254902 0.37254902
v -1.95116700 -0.70609730 0.00000000 0.37254902 0.37254902 0.37254902
v -4.70771700 -1.68446000 0.00000000 0.37254902 0.37254902 0.37254902
v -4.57875000 -2.00874200 0.00000001 0.37254902 0.37254902 0.37254902
v -0.15836770 2.06894800 0.00000000 0.37254902 0.37254902 0.37254902
v -1.86338600 -0.91291630 -0.00000000 0.37254902 0.37254902 0.37254902
v -4.42747700 -2.32324000 -0.00015176 0.37254902 0.37254902 0.37254902
v 0.06625330 2.07394200 0.00000000 0.37254902 0.37254902 0.37254902
v -1.75376000 -1.10903200 -0.00000000 0.37254902 0.37254902 0.37254902
v -4.25462600 -2.62643600 0.00000000 0.37254902 0.37254902 0.37254902
v -4.06104800 -2.91682800 0.00000000 0.37254902 0.37254902 0.37254902
v 0.29009750 2.05462100 -0.00000000 0.37254902 0.37254902 0.37254902
v -1.62357100 -1.29214600 0.00000000 0.37254902 0.37254902 0.37254902
v -3.84769700 -3.19299600 -0.00000555 0.37254902 0.37254902 0.37254902
v 0.51054060 2.01121200 0.00000000 0.37254902 0.37254902 0.37254902
v -1.47434800 -1.46011000 -0.00000000 0.37254902 0.37254902 0.37254902
v -3.61559100 -3.45362200 -0.00007157 0.37254902 0.37254902 0.37254902
v -3.36586400 -3.69742700 0.00000000 0.37254902 0.37254902 0.37254902
v 0.72499800 1.94422300 -0.00000000 0.37254902 0.37254902 0.37254902
v -1.30784000 -1.61095600 0.00000000 0.37254902 0.37254902 0.37254902
v -3.09975200 -3.92320400 -0.00007102 0.37254902 0.37254902 0.37254902
v -2.81853700 -4.12987300 -0.00019194 0.37254902 0.37254902 0.37254902
v 0.93095560 1.85444000 0.00000000 0.37254902 0.37254902 0.37254902
v -1.12599800 -1.74291500 -0.00000000 0.37254902 0.37254902 0.37254902
v 1.12599800 1.74291500 -0.00000000 0.37254902 0.37254902 0.37254902
v -2.52358100 -4.31642700 -0.00005527 0.37254902 0.37254902 0.37254902
v -0.93095560 -1.85444000 0.00000000 0.37254902 0.37254902 0.37254902
v 1.30784000 1.61095600 0.00000000 0.37254902 0.37254902 0.37254902
v -2.21633300 -4.48194900 0.00000000 0.37254902 0.37254902 0.37254902
v 1.47434800 1.46011000 -0.00000000 0.37254902 0.37254902 0.37254902
v -1.89828900 -4.62563500 -0.00000000 0.37254902 0.37254902 0.37254902
v -0.72499800 -1.94422300 -0.00000000 0.37254902 0.37254902 0.37254902
v -1.57099700 -4.74678500 -0.00002185 0.37254902 0.37254902 0.37254902
v -0.51054060 -2.01121200 0.00000000 0.37254902 0.37254902 0.37254902
v -1.23605100 -4.84481000 -0.00000000 0.37254902 0.37254902 0.37254902
v -0.89508300 -4.91923000 -0.00000855 0.37254902 0.37254902 0.37254902
v -0.29009750 -2.05462100 -0.00000000 0.37254902 0.37254902 0.37254902
v -0.54975450 -4.96968500 -0.00000000 0.37254902 0.37254902 0.37254902
v -0.06625330 -2.07394200 0.00000000 0.37254902 0.37254902 0.37254902
v -0.20174760 -4.99592800 -0.00000000 0.37254902 0.37254902 0.37254902
v 0.14724100 -4.99783200 -0.00003243 0.37254902 0.37254902 0.37254902
v 0.15836770 -2.06894800 0.00000000 0.37254902 0.37254902 0.37254902
v 0.49551460 -4.97538600 0.00000000 0.37254902 0.37254902 0.37254902
v 0.38113190 -2.03969700 -0.00000000 0.37254902 0.37254902 0.37254902
v 0.84137300 -4.92870100 -0.00000000 0.37254902 0.37254902 0.37254902
v 1.18313200 -4.85800400 -0.00000444 0.37254902 0.37254902 0.37254902
v 1.98062200 -0.61867670 0.00000000 0.37254902 0.37254902 0.37254902
v 1.90212100 -0.82919280 -0.00000000 0.37254902 0.37254902 0.37254902
v 1.80131900 -1.02998700 0.00000000 0.37254902 0.37254902 0.37254902
v 1.67939900 -1.21870700 -0.00000000 0.37254902 0.37254902 0.37254902
v 1.53778800 -1.39313700 0.00000000 0.37254902 0.37254902 0.37254902
v 1.37814900 -1.55123500 -0.00000000 0.37254902 0.37254902 0.37254902
v 1.20235200 -1.69114600 0.00000000 0.37254902 0.37254902 0.37254902
v 1.01245900 -1.81122900 -0.00000000 0.37254902 0.37254902 0.37254902
v 0.81069580 -1.91007800 0.00000000 0.37254902 0.37254902 0.37254902
v 0.59942770 -1.98653300 0.00000000 0.37254902 0.37254902 0.37254902
v 47.39690000 16.68933000 0.00000000 0.37254902 0.37254902 0.37254902
v 46.90064000 13.05003000 -0.00000000 0.37254902 0.37254902 0.37254902
v 46.77872000 12.86131000 -0.00001318 0.37254902 0.37254902 0.37254902
v 46.67791000 12.66052000 -0.00000000 0.37254902 0.37254902 0.37254902
v 47.04225000 13.22446000 -0.00001170 0.37254902 0.37254902 0.37254902
v 46.59941000 12.45000000 -0.00003301 0.37254902 0.37254902 0.37254902
v 47.20189000 13.38256000 -0.00000960 0.37254902 0.37254902 0.37254902
v 46.54413000 12.23222000 -0.00000315 0.37254902 0.37254902 0.37254902
v 1.62357100 1.29214600 0.00000000 0.37254902 0.37254902 0.37254902
v 47.37768000 13.52247000 0.00000000 0.37254902 0.37254902 0.37254902
v 46.51272000 12.00976000 -0.00000000 0.37254902 0.37254902 0.37254902
v 1.75376000 1.10903200 -0.00000000 0.37254902 0.37254902 0.37254902
v 47.56757000 13.64255000 0.00000000 0.37254902 0.37254902 0.37254902
v 46.50555000 11.78520000 0.00000000 0.37254902 0.37254902 0.37254902
v 1.86338600 0.91291630 -0.00000000 0.37254902 0.37254902 0.37254902
v 1.95116700 0.70609730 0.00000000 0.37254902 0.37254902 0.37254902
v 47.76934000 13.74140000 -0.00000557 0.37254902 0.37254902 0.37254902
v 46.52270000 11.56118000 -0.00000000 0.37254902 0.37254902 0.37254902
v 2.01607200 0.49099990 -0.00000000 0.37254902 0.37254902 0.37254902
v 47.98061000 13.81785000 0.00000193 0.37254902 0.37254902 0.37254902
v 46.56396000 11.34032000 -0.00000000 0.37254902 0.37254902 0.37254902
v 2.05733900 0.27014590 -0.00000000 0.37254902 0.37254902 0.37254902
v 48.19890000 13.87102000 -0.00000259 0.37254902 0.37254902 0.37254902
v 48.08452000 16.80671000 0.00000000 0.37254902 0.37254902 0.37254902
v 47.73866000 16.76002000 0.00000000 0.37254902 0.37254902 0.37254902
v 46.62887000 11.12522000 -0.00002612 0.37254902 0.37254902 0.37254902
v 48.42167000 13.90027000 0.00000000 0.37254902 0.37254902 0.37254902
v 48.43279000 16.82915000 -0.00000000 0.37254902 0.37254902 0.37254902
v 46.71665000 10.91840000 -0.00003438 0.37254902 0.37254902 0.37254902
v 2.07448700 0.04612479 0.00000000 0.37254902 0.37254902 0.37254902
v 48.64629000 13.90526000 -0.00000739 0.37254902 0.37254902 0.37254902
v 49.12979000 16.80101000 -0.00000000 0.37254902 0.37254902 0.37254902
v 48.78178000 16.82725000 0.00000000 0.37254902 0.37254902 0.37254902
v 46.82627000 10.72229000 -0.00000000 0.37254902 0.37254902 0.37254902
v 2.06731400 -0.17843710 -0.00000000 0.37254902 0.37254902 0.37254902
v 2.03590200 -0.40090700 -0.00000000 0.37254902 0.37254902 0.37254902
v 48.87013000 13.88594000 -0.00001675 0.37254902 0.37254902 0.37254902
v 49.47512000 16.75055000 0.00000000 0.37254902 0.37254902 0.37254902
v 46.95646000 10.53918000 0.00000003 0.37254902 0.37254902 0.37254902
v 49.09057000 13.84253000 0.00000000 0.37254902 0.37254902 0.37254902
v 50.15103000 16.57811000 -0.00000000 0.37254902 0.37254902 0.37254902
v 49.81609000 16.67613000 0.00000000 0.37254902 0.37254902 0.37254902
v 47.10569000 10.37121000 0.00000000 0.37254902 0.37254902 0.37254902
v 49.30503000 13.77555000 -0.00000000 0.37254902 0.37254902 0.37254902
v 50.47832000 16.45696000 -0.00000000 0.37254902 0.37254902 0.37254902
v 49.51099000 13.68576000 -0.00002605 0.37254902 0.37254902 0.37254902
v 50.79637000 16.31327000 -0.00000000 0.37254902 0.37254902 0.37254902
v 51.10362000 16.14775000 0.00000000 0.37254902 0.37254902 0.37254902
v 49.70603000 13.57424000 -0.00000000 0.37254902 0.37254902 0.37254902
v 51.39857000 15.96120000 0.00000000 0.37254902 0.37254902 0.37254902
v 49.88787000 13.44228000 -0.00000945 0.37254902 0.37254902 0.37254902
v 51.67978000 15.75453000 0.00000000 0.37254902 0.37254902 0.37254902
v 51.94590000 15.52874000 -0.00000000 0.37254902 0.37254902 0.37254902
v 50.05438000 13.29143000 0.00000000 0.37254902 0.37254902 0.37254902
v 52.19562000 15.28495000 -0.00000000 0.37254902 0.37254902 0.37254902
v 52.42773000 15.02432000 0.00000000 0.37254902 0.37254902 0.37254902
v 50.20361000 13.12347000 0.00000004 0.37254902 0.37254902 0.37254902
v 52.64109000 14.74814000 0.00000000 0.37254902 0.37254902 0.37254902
v 50.33380000 12.94035000 -0.00000000 0.37254902 0.37254902 0.37254902
v 52.83466000 14.45775000 0.00000000 0.37254902 0.37254902 0.37254902
v 53.00751000 14.15457000 -0.00000000 0.37254902 0.37254902 0.37254902
v 50.44342000 12.74424000 -0.00003438 0.37254902 0.37254902 0.37254902
v 53.15879000 13.84006000 0.00000000 0.37254902 0.37254902 0.37254902
v 50.53120000 12.53742000 -0.00002612 0.37254902 0.37254902 0.37254902
v 53.28776000 13.51577000 -0.00000000 0.37254902 0.37254902 0.37254902
v 53.39379000 13.18328000 0.00000000 0.37254902 0.37254902 0.37254902
v 50.59611000 12.32232000 -0.00000000 0.37254902 0.37254902 0.37254902
v 49.76317000 6.97331900 0.00000000 0.37254902 0.37254902 0.37254902
v 48.28994000 9.77670100 -0.00001675 0.37254902 0.37254902 0.37254902
v 48.06950000 9.82011100 0.00000000 0.37254902 0.37254902 0.37254902
v 47.85504000 9.88710000 -0.00000000 0.37254902 0.37254902 0.37254902
v 47.64908000 9.97688200 -0.00002605 0.37254902 0.37254902 0.37254902
v 47.45404000 10.08841000 -0.00000000 0.37254902 0.37254902 0.37254902
v 47.27220000 10.22037000 -0.00000945 0.37254902 0.37254902 0.37254902
v 49.17946000 9.84479000 0.00000258 0.37254902 0.37254902 0.37254902
v 48.96117000 9.79162500 -0.00000194 0.37254902 0.37254902 0.37254902
v 48.73840000 9.76237500 0.00000000 0.37254902 0.37254902 0.37254902
v 48.51378000 9.75738000 -0.00000739 0.37254902 0.37254902 0.37254902
v 53.47637000 12.84419000 -0.00000000 0.37254902 0.37254902 0.37254902
v 50.63737000 12.10147000 -0.00000000 0.37254902 0.37254902 0.37254902
v 50.09916000 7.06768400 -0.00000000 0.37254902 0.37254902 0.37254902
v 53.53510000 12.50017000 0.00000000 0.37254902 0.37254902 0.37254902
v 50.42776000 7.18525700 0.00000000 0.37254902 0.37254902 0.37254902
v 49.39073000 9.92124500 -0.00000557 0.37254902 0.37254902 0.37254902
v 53.56968000 12.15290000 -0.00000000 0.37254902 0.37254902 0.37254902
v 50.65452000 11.87745000 0.00000000 0.37254902 0.37254902 0.37254902
v 50.74735000 7.32546500 0.00000000 0.37254902 0.37254902 0.37254902
v 49.59250000 10.02009000 0.00000000 0.37254902 0.37254902 0.37254902
v 53.57996000 11.80405000 0.00000000 0.37254902 0.37254902 0.37254902
v 50.64735000 11.65289000 -0.00000000 0.37254902 0.37254902 0.37254902
v 51.05638000 7.48762500 -0.00000000 0.37254902 0.37254902 0.37254902
v 53.56588000 11.45534000 0.00000000 0.37254902 0.37254902 0.37254902
v 51.35335000 7.67094800 0.00000000 0.37254902 0.37254902 0.37254902
v 49.78239000 10.14018000 0.00000000 0.37254902 0.37254902 0.37254902
v 53.52751000 11.10846000 0.00000000 0.37254902 0.37254902 0.37254902
v 50.61594000 11.43042000 -0.00000453 0.37254902 0.37254902 0.37254902
v 51.63681000 7.87453900 -0.00000000 0.37254902 0.37254902 0.37254902
v 49.95818000 10.28009000 -0.00000960 0.37254902 0.37254902 0.37254902
v 53.46503000 10.76511000 -0.00000000 0.37254902 0.37254902 0.37254902
v 50.56066000 11.21265000 -0.00003301 0.37254902 0.37254902 0.37254902
v 51.90537000 8.09740700 0.00000000 0.37254902 0.37254902 0.37254902
v 53.37876000 10.42694000 -0.00000000 0.37254902 0.37254902 0.37254902
v 52.15774000 8.33846700 0.00000000 0.37254902 0.37254902 0.37254902
v 50.11782000 10.43819000 -0.00001170 0.37254902 0.37254902 0.37254902
v 53.26910000 10.09562000 0.00000000 0.37254902 0.37254902 0.37254902
v 50.48216000 11.00213000 -0.00000000 0.37254902 0.37254902 0.37254902
v 52.39267000 8.59654300 -0.00000000 0.37254902 0.37254902 0.37254902
v 50.25943000 10.61262000 -0.00000000 0.37254902 0.37254902 0.37254902
v 53.13660000 9.77275700 0.00000000 0.37254902 0.37254902 0.37254902
v 52.60903000 8.87037900 -0.00000000 0.37254902 0.37254902 0.37254902
v 52.98191000 9.45992200 0.00000000 0.37254902 0.37254902 0.37254902
v 50.38135000 10.80134000 -0.00001318 0.37254902 0.37254902 0.37254902
v 52.80576000 9.15864000 -0.00000000 0.37254902 0.37254902 0.37254902
v 47.39690000 16.68933000 -8.00000000 0.37254902 0.37254902 0.37254902
v -1.18313200 4.85800300 -7.99999600 0.37254902 0.37254902 0.37254902
v 47.73866000 16.76002000 -8.00000000 0.37254902 0.37254902 0.37254902
v 48.08452000 16.80671000 -8.00000000 0.37254902 0.37254902 0.37254902
v 48.43279000 16.82915000 -8.00000000 0.37254902 0.37254902 0.37254902
v 48.78178000 16.82725000 -8.00000000 0.37254902 0.37254902 0.37254902
v 49.12979000 16.80101000 -8.00000000 0.37254902 0.37254902 0.37254902
v 49.47512000 16.75055000 -8.00000000 0.37254902 0.37254902 0.37254902
v 49.81609000 16.67613000 -8.00000000 0.37254902 0.37254902 0.37254902
v 50.15103000 16.57811000 -8.00000000 0.37254902 0.37254902 0.37254902
v 50.47832000 16.45696000 -8.00000000 0.37254902 0.37254902 0.37254902
v 50.79637000 16.31327000 -8.00000000 0.37254902 0.37254902 0.37254902
v 51.10362000 16.14775000 -8.00000000 0.37254902 0.37254902 0.37254902
v 51.39857000 15.96120000 -8.00000000 0.37254902 0.37254902 0.37254902
v 51.67978000 15.75453000 -8.00000000 0.37254902 0.37254902 0.37254902
v 51.94590000 15.52874000 -8.00000000 0.37254902 0.37254902 0.37254902
v 52.19562000 15.28495000 -8.00000000 0.37254902 0.37254902 0.37254902
v 52.42773000 15.02432000 -8.00000000 0.37254902 0.37254902 0.37254902
v 52.64109000 14.74814000 -8.00000000 0.37254902 0.37254902 0.37254902
v 52.83466000 14.45775000 -8.00000000 0.37254902 0.37254902 0.37254902
v 53.00751000 14.15457000 -8.00000000 0.37254902 0.37254902 0.37254902
v 53.15879000 13.84006000 -8.00000000 0.37254902 0.37254902 0.37254902
v 53.28776000 13.51577000 -8.00000000 0.37254902 0.37254902 0.37254902
v 53.39379000 13.18328000 -8.00000000 0.37254902 0.37254902 0.37254902
v 53.47637000 12.84419000 -8.00000000 0.37254902 0.37254902 0.37254902
v 53.53510000 12.50017000 -8.00000000 0.37254902 0.37254902 0.37254902
v 53.56968000 12.15290000 -8.00000000 0.37254902 0.37254902 0.37254902
v 53.57996000 11.80405000 -8.00000000 0.37254902 0.37254902 0.37254902
v 53.56588000 11.45534000 -8.00000000 0.37254902 0.37254902 0.37254902
v 53.52751000 11.10846000 -8.00000000 0.37254902 0.37254902 0.37254902
v 53.46503000 10.76511000 -8.00000000 0.37254902 0.37254902 0.37254902
v 53.37876000 10.42694000 -8.00000000 0.37254902 0.37254902 0.37254902
v 53.26910000 10.09562000 -8.00000000 0.37254902 0.37254902 0.37254902
v 53.13660000 9.77275700 -8.00000000 0.37254902 0.37254902 0.37254902
v 52.98191000 9.45992200 -8.00000000 0.37254902 0.37254902 0.37254902
v 52.80576000 9.15864000 -8.00000000 0.37254902 0.37254902 0.37254902
v 52.60903000 8.87037900 -8.00000000 0.37254902 0.37254902 0.37254902
v 52.39267000 8.59654300 -8.00000000 0.37254902 0.37254902 0.37254902
v 52.15774000 8.33846700 -8.00000000 0.37254902 0.37254902 0.37254902
v 51.90537000 8.09740700 -8.00000000 0.37254902 0.37254902 0.37254902
v 51.63681000 7.87453900 -8.00000000 0.37254902 0.37254902 0.37254902
v 51.35335000 7.67094800 -8.00000000 0.37254902 0.37254902 0.37254902
v 51.05638000 7.48762500 -8.00000000 0.37254902 0.37254902 0.37254902
v 50.74735000 7.32546500 -8.00000000 0.37254902 0.37254902 0.37254902
v 50.42776000 7.18525700 -8.00000000 0.37254902 0.37254902 0.37254902
v 50.09916000 7.06768400 -8.00000000 0.37254902 0.37254902 0.37254902
v 49.76317000 6.97331900 -8.00000000 0.37254902 0.37254902 0.37254902
v -1.95116700 -0.70609730 -8.00000000 0.37254902 0.37254902 0.37254902
v -1.86338600 -0.91291630 -8.00000000 0.37254902 0.37254902 0.37254902
v -1.75376000 -1.10903200 -8.00000000 0.37254902 0.37254902 0.37254902
v -1.62357100 -1.29214600 -8.00000000 0.37254902 0.37254902 0.37254902
v -1.47434800 -1.46011000 -8.00000000 0.37254902 0.37254902 0.37254902
v -1.30784000 -1.61095600 -8.00000000 0.37254902 0.37254902 0.37254902
v -1.12599800 -1.74291500 -8.00000000 0.37254902 0.37254902 0.37254902
v -0.93095560 -1.85444000 -8.00000000 0.37254902 0.37254902 0.37254902
v -0.72499800 -1.94422300 -8.00000000 0.37254902 0.37254902 0.37254902
v -0.51054060 -2.01121200 -8.00000000 0.37254902 0.37254902 0.37254902
v -0.29009750 -2.05462100 -8.00000000 0.37254902 0.37254902 0.37254902
v -0.06625330 -2.07394200 -8.00000000 0.37254902 0.37254902 0.37254902
v 0.15836770 -2.06894800 -8.00000000 0.37254902 0.37254902 0.37254902
v 0.38113190 -2.03969700 -8.00000000 0.37254902 0.37254902 0.37254902
v 0.59942770 -1.98653300 -8.00000000 0.37254902 0.37254902 0.37254902
v 0.81069580 -1.91007800 -8.00000000 0.37254902 0.37254902 0.37254902
v 1.01245900 -1.81122900 -8.00000000 0.37254902 0.37254902 0.37254902
v 1.20235200 -1.69114600 -8.00000000 0.37254902 0.37254902 0.37254902
v 1.37814900 -1.55123500 -8.00000000 0.37254902 0.37254902 0.37254902
v 1.53778800 -1.39313700 -8.00000000 0.37254902 0.37254902 0.37254902
v 1.67939900 -1.21870700 -8.00000000 0.37254902 0.37254902 0.37254902
v 1.80131900 -1.02998700 -8.00000000 0.37254902 0.37254902 0.37254902
v 1.90212100 -0.82919280 -8.00000000 0.37254902 0.37254902 0.37254902
v 1.98062200 -0.61867670 -8.00000000 0.37254902 0.37254902 0.37254902
v 2.03590200 -0.40090700 -8.00000000 0.37254902 0.37254902 0.37254902
v 2.06731400 -0.17843710 -8.00000000 0.37254902 0.37254902 0.37254902
v 2.07448700 0.04612479 -8.00000000 0.37254902 0.37254902 0.37254902
v 2.05733900 0.27014590 -8.00000000 0.37254902 0.37254902 0.37254902
v 2.01607200 0.49099990 -8.00000000 0.37254902 0.37254902 0.37254902
v 1.95116700 0.70609730 -8.00000000 0.37254902 0.37254902 0.37254902
v 1.86338600 0.91291630 -8.00000000 0.37254902 0.37254902 0.37254902
v 1.75376000 1.10903200 -8.00000000 0.37254902 0.37254902 0.37254902
v 1.62357100 1.29214600 -8.00000000 0.37254902 0.37254902 0.37254902
v 1.47434800 1.46011000 -8.00000000 0.37254902 0.37254902 0.37254902
v 1.30784000 1.61095600 -8.00000000 0.37254902 0.37254902 0.37254902
v 1.12599800 1.74291500 -8.00000000 0.37254902 0.37254902 0.37254902
v 0.93095560 1.85444000 -8.00000000 0.37254902 0.37254902 0.37254902
v 0.72499800 1.94422300 -8.00000000 0.37254902 0.37254902 0.37254902
v 0.51054060 2.01121200 -8.00000000 0.37254902 0.37254902 0.37254902
v 0.29009750 2.05462100 -8.00000000 0.37254902 0.37254902 0.37254902
v 0.06625330 2.07394200 -8.00000000 0.37254902 0.37254902 0.37254902
v -0.15836770 2.06894800 -8.00000000 0.37254902 0.37254902 0.37254902
v -0.38113190 2.03969700 -8.00000000 0.37254902 0.37254902 0.37254902
v -0.59942770 1.98653300 -8.00000000 0.37254902 0.37254902 0.37254902
v -0.81069580 1.91007800 -8.00000000 0.37254902 0.37254902 0.37254902
v -1.01245900 1.81122900 -8.00000000 0.37254902 0.37254902 0.37254902
v -1.20235200 1.69114600 -8.00000000 0.37254902 0.37254902 0.37254902
v -1.37814900 1.55123500 -8.00000000 0.37254902 0.37254902 0.37254902
v -1.53778800 1.39313700 -8.00000000 0.37254902 0.37254902 0.37254902
v -1.67939900 1.21870700 -8.00000000 0.37254902 0.37254902 0.37254902
v -1.80131900 1.02998700 -8.00000000 0.37254902 0.37254902 0.37254902
v -1.90212100 0.82919280 -8.00000000 0.37254902 0.37254902 0.37254902
v -1.98062200 0.61867670 -8.00000000 0.37254902 0.37254902 0.37254902
v -2.03590200 0.40090700 -8.00000000 0.37254902 0.37254902 0.37254902
v -2.06731400 0.17843710 -8.00000000 0.37254902 0.37254902 0.37254902
v -2.07448700 -0.04612479 -8.00000000 0.37254902 0.37254902 0.37254902
v -2.05733900 -0.27014590 -8.00000000 0.37254902 0.37254902 0.37254902
v 1.18313200 -4.85800400 -8.00000000 0.37254902 0.37254902 0.37254902
v 0.84137310 -4.92870100 -7.99999500 0.37254902 0.37254902 0.37254902
v 0.49551420 -4.97538600 -7.99999400 0.37254902 0.37254902 0.37254902
v 0.14724230 -4.99783100 -8.00000000 0.37254902 0.37254902 0.37254902
v -0.20174580 -4.99592800 -7.99995800 0.37254902 0.37254902 0.37254902
v -0.54975410 -4.96968500 -7.99995300 0.37254902 0.37254902 0.37254902
v -0.89508310 -4.91923000 -8.00000000 0.37254902 0.37254902 0.37254902
v -1.23605000 -4.84481000 -7.99998300 0.37254902 0.37254902 0.37254902
v -1.57099600 -4.74678500 -8.00000000 0.37254902 0.37254902 0.37254902
v -1.89828700 -4.62563600 -7.99996200 0.37254902 0.37254902 0.37254902
v -2.21633100 -4.48195000 -7.99995300 0.37254902 0.37254902 0.37254902
v -2.52357900 -4.31642800 -8.00000000 0.37254902 0.37254902 0.37254902
v -2.81853700 -4.12987300 -8.00000000 0.37254902 0.37254902 0.37254902
v -3.09975100 -3.92320500 -8.00000000 0.37254902 0.37254902 0.37254902
v -3.36586400 -3.69742700 -7.99999200 0.37254902 0.37254902 0.37254902
v -3.61559000 -3.45362400 -8.00000000 0.37254902 0.37254902 0.37254902
v -3.84769700 -3.19299600 -8.00000000 0.37254902 0.37254902 0.37254902
v -4.06104800 -2.91682700 -7.99981800 0.37254902 0.37254902 0.37254902
v -4.25462600 -2.62643600 -7.99999700 0.37254902 0.37254902 0.37254902
v -4.42747700 -2.32324000 -8.00000000 0.37254902 0.37254902 0.37254902
v -4.57874900 -2.00874400 -7.99999800 0.37254902 0.37254902 0.37254902
v -4.70771700 -1.68446000 -7.99976700 0.37254902 0.37254902 0.37254902
v -4.81375200 -1.35195700 -7.99999800 0.37254902 0.37254902 0.37254902
v -4.89633500 -1.01286800 -8.00000000 0.37254902 0.37254902 0.37254902
v -4.95506300 -0.66884120 -8.00000000 0.37254902 0.37254902 0.37254902
v -4.98964800 -0.32157310 -8.00000000 0.37254902 0.37254902 0.37254902
v -4.99992600 0.02726267 -7.99984800 0.37254902 0.37254902 0.37254902
v -4.98584400 0.37598480 -8.00000000 0.37254902 0.37254902 0.37254902
v -4.94747000 0.72286690 -8.00000000 0.37254902 0.37254902 0.37254902
v -4.88499700 1.06621000 -7.99999400 0.37254902 0.37254902 0.37254902
v -4.79872300 1.40437600 -7.99999700 0.37254902 0.37254902 0.37254902
v -4.68906400 1.73570600 -8.00000000 0.37254902 0.37254902 0.37254902
v -4.55656900 2.05856200 -7.99999600 0.37254902 0.37254902 0.37254902
v -4.40187400 2.37139300 -7.99981100 0.37254902 0.37254902 0.37254902
v -4.22572900 2.67268100 -7.99999700 0.37254902 0.37254902 0.37254902
v -4.02899600 2.96094400 -8.00000000 0.37254902 0.37254902 0.37254902
v -3.81263700 3.23478000 -8.00000000 0.37254902 0.37254902 0.37254902
v -3.57770300 3.49285500 -7.99997800 0.37254902 0.37254902 0.37254902
v -3.32533800 3.73391600 -8.00000000 0.37254902 0.37254902 0.37254902
v -3.05677300 3.95678300 -7.99999100 0.37254902 0.37254902 0.37254902
v -2.77331600 4.16037500 -8.00000000 0.37254902 0.37254902 0.37254902
v -2.47634700 4.34369700 -8.00000000 0.37254902 0.37254902 0.37254902
v -2.16731500 4.50585700 -7.99996800 0.37254902 0.37254902 0.37254902
v -1.84772100 4.64606500 -8.00000000 0.37254902 0.37254902 0.37254902
v -1.51912700 4.76363800 -8.00000000 0.37254902 0.37254902 0.37254902
v 46.71665000 10.91840000 -5.55000000 0.37254902 0.37254902 0.37254902
v 46.62887000 11.12523000 -5.55000000 0.37254902 0.37254902 0.37254902
v 46.82627000 10.72229000 -5.55000000 0.37254902 0.37254902 0.37254902
v 46.95646000 10.53918000 -5.54999900 0.37254902 0.37254902 0.37254902
v 47.10569000 10.37121000 -5.54996800 0.37254902 0.37254902 0.37254902
v 47.27219000 10.22037000 -5.55000000 0.37254902 0.37254902 0.37254902
v 47.45404000 10.08841000 -5.54998700 0.37254902 0.37254902 0.37254902
v 47.64908000 9.97688300 -5.55000000 0.37254902 0.37254902 0.37254902
v 47.85504000 9.88710000 -5.54998800 0.37254902 0.37254902 0.37254902
v 48.06949000 9.82011100 -5.54999100 0.37254902 0.37254902 0.37254902
v 48.28994000 9.77670100 -5.55000000 0.37254902 0.37254902 0.37254902
v 48.51378000 9.75738000 -5.55000000 0.37254902 0.37254902 0.37254902
v 48.73840000 9.76237500 -5.54999500 0.37254902 0.37254902 0.37254902
v 48.96117000 9.79162500 -5.55000300 0.37254902 0.37254902 0.37254902
v 49.17946000 9.84479000 -5.54999800 0.37254902 0.37254902 0.37254902
v 49.39073000 9.92124400 -5.55000000 0.37254902 0.37254902 0.37254902
v 49.59249000 10.02009000 -5.54999300 0.37254902 0.37254902 0.37254902
v 49.78238000 10.14018000 -5.54998700 0.37254902 0.37254902 0.37254902
v 49.95818000 10.28009000 -5.55000000 0.37254902 0.37254902 0.37254902
v 50.11782000 10.43819000 -5.55000000 0.37254902 0.37254902 0.37254902
v 50.25943000 10.61261000 -5.54997400 0.37254902 0.37254902 0.37254902
v 50.38135000 10.80133000 -5.55000000 0.37254902 0.37254902 0.37254902
v 50.48216000 11.00213000 -5.54999100 0.37254902 0.37254902 0.37254902
v 50.56066000 11.21265000 -5.55000100 0.37254902 0.37254902 0.37254902
v 50.61594000 11.43042000 -5.55000000 0.37254902 0.37254902 0.37254902
v 50.64735000 11.65289000 -5.55000000 0.37254902 0.37254902 0.37254902
v 50.65452000 11.87744000 -5.54996600 0.37254902 0.37254902 0.37254902
v 50.63737000 12.10147000 -5.54998000 0.37254902 0.37254902 0.37254902
v 50.59611000 12.32232000 -5.55000000 0.37254902 0.37254902 0.37254902
v 50.53120000 12.53742000 -5.55000000 0.37254902 0.37254902 0.37254902
v 50.44342000 12.74424000 -5.55000000 0.37254902 0.37254902 0.37254902
v 50.33380000 12.94035000 -5.55000000 0.37254902 0.37254902 0.37254902
v 50.20361000 13.12346000 -5.54994100 0.37254902 0.37254902 0.37254902
v 50.05438000 13.29143000 -5.54996800 0.37254902 0.37254902 0.37254902
v 49.88788000 13.44228000 -5.55000000 0.37254902 0.37254902 0.37254902
v 49.70603000 13.57424000 -5.54998700 0.37254902 0.37254902 0.37254902
v 49.51099000 13.68576000 -5.55000000 0.37254902 0.37254902 0.37254902
v 49.30503000 13.77555000 -5.54998800 0.37254902 0.37254902 0.37254902
v 49.09058000 13.84253000 -5.54999100 0.37254902 0.37254902 0.37254902
v 48.87013000 13.88594000 -5.55000000 0.37254902 0.37254902 0.37254902
v 48.64629000 13.90526000 -5.55000000 0.37254902 0.37254902 0.37254902
v 48.42167000 13.90027000 -5.54999500 0.37254902 0.37254902 0.37254902
v 48.19890000 13.87102000 -5.55000300 0.37254902 0.37254902 0.37254902
v 47.98061000 13.81785000 -5.54999800 0.37254902 0.37254902 0.37254902
v 47.76934000 13.74140000 -5.55000000 0.37254902 0.37254902 0.37254902
v 47.56758000 13.64255000 -5.54999300 0.37254902 0.37254902 0.37254902
v 47.37769000 13.52247000 -5.54998700 0.37254902 0.37254902 0.37254902
v 47.20189000 13.38256000 -5.55000000 0.37254902 0.37254902 0.37254902
v 47.04225000 13.22446000 -5.55000000 0.37254902 0.37254902 0.37254902
v 46.90064000 13.05003000 -5.54997400 0.37254902 0.37254902 0.37254902
v 46.77872000 12.86131000 -5.55000000 0.37254902 0.37254902 0.37254902
v 46.67791000 12.66052000 -5.54999100 0.37254902 0.37254902 0.37254902
v 46.59941000 12.45000000 -5.55000100 0.37254902 0.37254902 0.37254902
v 46.54413000 12.23222000 -5.55000000 0.37254902 0.37254902 0.37254902
v 46.51272000 12.00976000 -5.55000000 0.37254902 0.37254902 0.37254902
v 46.50555000 11.78520000 -5.54996600 0.37254902 0.37254902 0.37254902
v 46.52270000 11.56118000 -5.54998000 0.37254902 0.37254902 0.37254902
v 44.11711000 11.08437000 -8.00000000 0.37254902 0.37254902 0.37254902
v 46.56396000 11.34032000 -5.55000000 0.37254902 0.37254902 0.37254902
v 44.07449000 11.41213000 -8.00000000 0.37254902 0.37254902 0.37254902
v 44.05591000 11.74213000 -8.00000000 0.37254902 0.37254902 0.37254902
v 44.06147000 12.07261000 -8.00000000 0.37254902 0.37254902 0.37254902
v 44.09114000 12.40180000 -8.00000000 0.37254902 0.37254902 0.37254902
v 44.14476000 12.72795000 -8.00000000 0.37254902 0.37254902 0.37254902
v 44.22204000 13.04931000 -8.00000000 0.37254902 0.37254902 0.37254902
v 44.32257000 13.36417000 -8.00000000 0.37254902 0.37254902 0.37254902
v 44.44582000 13.67086000 -8.00000000 0.37254902 0.37254902 0.37254902
v 44.59113000 13.96773000 -8.00000000 0.37254902 0.37254902 0.37254902
v 44.75772000 14.25320000 -8.00000000 0.37254902 0.37254902 0.37254902
v 44.94470000 14.52575000 -8.00000000 0.37254902 0.37254902 0.37254902
v 45.15108000 14.78393000 -8.00000000 0.37254902 0.37254902 0.37254902
v 45.37575000 15.02635000 -8.00000000 0.37254902 0.37254902 0.37254902
v 45.61752000 15.25172000 -8.00000000 0.37254902 0.37254902 0.37254902
v 45.87510000 15.45885000 -8.00000000 0.37254902 0.37254902 0.37254902
v 46.14711000 15.64662000 -8.00000000 0.37254902 0.37254902 0.37254902
v 46.43210000 15.81403000 -8.00000000 0.37254902 0.37254902 0.37254902
v 46.72855000 15.96020000 -8.00000000 0.37254902 0.37254902 0.37254902
v 47.03488000 16.08433000 -8.00000000 0.37254902 0.37254902 0.37254902
v 47.34945000 16.18578000 -8.00000000 0.37254902 0.37254902 0.37254902
v 47.67058000 16.26399000 -8.00000000 0.37254902 0.37254902 0.37254902
v 47.99657000 16.31855000 -8.00000000 0.37254902 0.37254902 0.37254902
v 48.32568000 16.34917000 -8.00000000 0.37254902 0.37254902 0.37254902
v 48.65614000 16.35568000 -8.00000000 0.37254902 0.37254902 0.37254902
v 48.98619000 16.33806000 -8.00000000 0.37254902 0.37254902 0.37254902
v 49.31408000 16.29639000 -8.00000000 0.37254902 0.37254902 0.37254902
v 49.63805000 16.23089000 -8.00000000 0.37254902 0.37254902 0.37254902
v 49.95637000 16.14193000 -8.00000000 0.37254902 0.37254902 0.37254902
v 50.26736000 16.02996000 -8.00000000 0.37254902 0.37254902 0.37254902
v 50.56934000 15.89559000 -8.00000000 0.37254902 0.37254902 0.37254902
v 50.86070000 15.73954000 -8.00000000 0.37254902 0.37254902 0.37254902
v 51.13990000 15.56264000 -8.00000000 0.37254902 0.37254902 0.37254902
v 51.40544000 15.36583000 -8.00000000 0.37254902 0.37254902 0.37254902
v 51.65591000 15.15016000 -8.00000000 0.37254902 0.37254902 0.37254902
v 51.88996000 14.91678000 -8.00000000 0.37254902 0.37254902 0.37254902
v 52.10635000 14.66694000 -8.00000000 0.37254902 0.37254902 0.37254902
v 52.30393000 14.40197000 -8.00000000 0.37254902 0.37254902 0.37254902
v 52.48164000 14.12328000 -8.00000000 0.37254902 0.37254902 0.37254902
v 52.63854000 13.83237000 -8.00000000 0.37254902 0.37254902 0.37254902
v 52.77378000 13.53078000 -8.00000000 0.37254902 0.37254902 0.37254902
v 52.88664000 13.22012000 -8.00000000 0.37254902 0.37254902 0.37254902
v 52.97653000 12.90206000 -8.00000000 0.37254902 0.37254902 0.37254902
v 53.04296000 12.57828000 -8.00000000 0.37254902 0.37254902 0.37254902
v 53.08558000 12.25051000 -8.00000000 0.37254902 0.37254902 0.37254902
v 53.10416000 11.92051000 -8.00000000 0.37254902 0.37254902 0.37254902
v 53.09860000 11.59003000 -8.00000000 0.37254902 0.37254902 0.37254902
v 53.06893000 11.26084000 -8.00000000 0.37254902 0.37254902 0.37254902
v 53.01531000 10.93470000 -8.00000000 0.37254902 0.37254902 0.37254902
v 52.93803000 10.61333000 -8.00000000 0.37254902 0.37254902 0.37254902
v 52.83750000 10.29847000 -8.00000000 0.37254902 0.37254902 0.37254902
v 52.71425000 9.99178400 -8.00000000 0.37254902 0.37254902 0.37254902
v 52.56894000 9.69491300 -8.00000000 0.37254902 0.37254902 0.37254902
v 52.40235000 9.40944100 -8.00000000 0.37254902 0.37254902 0.37254902
v 52.21537000 9.13689100 -8.00000000 0.37254902 0.37254902 0.37254902
v 52.00899000 8.87871600 -8.00000000 0.37254902 0.37254902 0.37254902
v 51.78432000 8.63629500 -8.00000000 0.37254902 0.37254902 0.37254902
v 51.54255000 8.41092100 -8.00000000 0.37254902 0.37254902 0.37254902
v 51.28497000 8.20379600 -8.00000000 0.37254902 0.37254902 0.37254902
v 51.01296000 8.01602600 -8.00000000 0.37254902 0.37254902 0.37254902
v 50.72797000 7.84861100 -8.00000000 0.37254902 0.37254902 0.37254902
v 50.43152000 7.70244700 -8.00000000 0.37254902 0.37254902 0.37254902
v 50.12520000 7.57831100 -8.00000000 0.37254902 0.37254902 0.37254902
v 49.81062000 7.47686700 -8.00000000 0.37254902 0.37254902 0.37254902
v 49.48949000 7.39865700 -8.00000000 0.37254902 0.37254902 0.37254902
v 49.16350000 7.34409700 -8.00000000 0.37254902 0.37254902 0.37254902
v 48.83439000 7.31347700 -8.00000000 0.37254902 0.37254902 0.37254902
v 48.50393000 7.30696200 -8.00000000 0.37254902 0.37254902 0.37254902
v 48.17388000 7.32458700 -8.00000000 0.37254902 0.37254902 0.37254902
v 47.84599000 7.36625700 -8.00000000 0.37254902 0.37254902 0.37254902
v 47.52202000 7.43175000 -8.00000000 0.37254902 0.37254902 0.37254902
v 47.20370000 7.52071800 -8.00000000 0.37254902 0.37254902 0.37254902
v 46.89271000 7.63268300 -8.00000000 0.37254902 0.37254902 0.37254902
v 46.59073000 7.76705100 -8.00000000 0.37254902 0.37254902 0.37254902
v 46.29937000 7.92310300 -8.00000000 0.37254902 0.37254902 0.37254902
v 46.02017000 8.10000700 -8.00000000 0.37254902 0.37254902 0.37254902
v 45.75463000 8.29681900 -8.00000000 0.37254902 0.37254902 0.37254902
v 45.50416000 8.51248900 -8.00000000 0.37254902 0.37254902 0.37254902
v 45.27011000 8.74586700 -8.00000000 0.37254902 0.37254902 0.37254902
v 45.05372000 8.99570700 -8.00000000 0.37254902 0.37254902 0.37254902
v 44.85614000 9.26067600 -8.00000000 0.37254902 0.37254902 0.37254902
v 44.67843000 9.53936100 -8.00000000 0.37254902 0.37254902 0.37254902
v 44.52153000 9.83027400 -8.00000000 0.37254902 0.37254902 0.37254902
v 44.38629000 10.13186000 -8.00000000 0.37254902 0.37254902 0.37254902
v 44.27343000 10.44252000 -8.00000000 0.37254902 0.37254902 0.37254902
v 44.18354000 10.76059000 -8.00000000 0.37254902 0.37254902 0.37254902
v -2.01607200 -0.49099990 -8.00000000 0.37254902 0.37254902 0.37254902
f 1 2 3
f 4 2 1
f 4 5 6
f 4 6 2
f 7 1 3
f 7 3 8
f 7 8 9
f 10 5 4
f 10 11 5
f 12 7 9
f 12 9 13
f 12 13 14
f 15 11 10
f 15 16 17
f 15 17 11
f 18 12 14
f 18 14 19
f 20 21 16
f 20 16 15
f 22 18 19
f 22 19 23
f 22 23 24
f 25 26 27
f 25 27 21
f 25 21 20
f 28 22 24
f 28 24 29
f 30 26 25
f 30 31 26
f 32 33 34
f 32 28 29
f 32 29 33
f 35 36 37
f 35 37 31
f 35 31 30
f 38 34 39
f 38 32 34
f 40 36 35
f 41 39 42
f 41 42 43
f 41 38 39
f 44 36 40
f 45 43 46
f 45 41 43
f 47 36 44
f 48 45 46
f 48 46 49
f 48 49 50
f 51 36 47
f 52 48 50
f 52 50 53
f 54 36 51
f 55 52 53
f 55 53 56
f 55 56 57
f 58 36 54
f 59 57 60
f 59 55 57
f 61 59 60
f 62 36 58
f 63 59 61
f 64 36 62
f 65 63 61
f 66 63 65
f 67 36 64
f 68 66 65
f 69 36 67
f 70 71 66
f 70 66 68
f 72 73 71
f 72 71 70
f 74 73 72
f 75 76 73
f 75 73 74
f 77 76 75
f 77 78 76
f 79 78 77
f 80 78 79
f 80 81 78
f 82 81 80
f 82 83 81
f 84 83 82
f 85 86 87
f 85 87 88
f 85 88 89
f 85 89 90
f 85 90 91
f 85 83 84
f 85 91 92
f 85 92 93
f 85 93 94
f 85 94 95
f 85 95 83
f 96 36 69
f 97 96 98
f 99 98 96
f 100 96 97
f 101 96 69
f 101 99 96
f 102 96 100
f 103 101 69
f 103 69 104
f 105 96 102
f 106 104 107
f 106 103 104
f 108 96 105
f 109 107 110
f 109 110 111
f 109 106 107
f 112 96 108
f 113 111 114
f 113 109 111
f 115 96 112
f 116 113 114
f 116 114 117
f 118 119 120
f 118 120 96
f 118 96 115
f 121 116 117
f 122 119 118
f 122 123 119
f 124 117 125
f 124 121 117
f 126 127 128
f 126 128 123
f 126 123 122
f 129 125 130
f 129 130 131
f 129 124 125
f 132 127 126
f 132 133 127
f 134 129 131
f 135 136 137
f 135 137 133
f 135 133 132
f 138 131 86
f 138 134 131
f 139 140 136
f 139 136 135
f 141 142 140
f 141 140 139
f 143 142 141
f 144 143 141
f 145 143 144
f 146 145 144
f 147 145 146
f 148 147 146
f 148 146 149
f 150 148 149
f 151 150 149
f 151 149 152
f 153 151 152
f 153 152 154
f 155 153 154
f 156 155 154
f 156 154 157
f 158 156 157
f 158 157 159
f 160 158 159
f 161 160 159
f 161 159 162
f 163 164 165
f 163 165 166
f 163 166 167
f 163 167 168
f 163 168 169
f 163 169 138
f 163 86 85
f 163 138 86
f 163 170 171
f 163 171 172
f 163 172 173
f 163 173 164
f 174 161 162
f 174 162 175
f 176 170 163
f 177 174 175
f 178 170 176
f 178 179 170
f 180 177 175
f 180 175 181
f 182 179 178
f 182 183 179
f 184 180 181
f 184 181 185
f 186 183 182
f 187 184 185
f 188 183 186
f 188 189 183
f 190 187 185
f 190 185 191
f 192 193 189
f 192 189 188
f 194 191 195
f 194 190 191
f 196 193 192
f 197 194 195
f 198 193 196
f 198 199 193
f 200 197 195
f 200 195 201
f 202 199 198
f 202 203 199
f 204 200 201
f 205 203 202
f 206 204 201
f 206 201 207
f 208 206 207
f 208 203 205
f 208 207 203
f 36 96 209
f 36 209 210
f 96 120 211
f 96 211 209
f 119 212 211
f 120 119 211
f 123 213 212
f 119 123 212
f 123 128 214
f 123 214 213
f 127 215 214
f 128 127 214
f 127 133 216
f 127 216 215
f 133 137 217
f 133 217 216
f 136 218 217
f 137 136 217
f 136 140 219
f 136 219 218
f 142 220 219
f 140 142 219
f 142 143 221
f 142 221 220
f 221 143 145
f 222 221 145
f 223 145 147
f 223 222 145
f 223 147 148
f 224 223 148
f 225 148 150
f 225 224 148
f 226 150 151
f 226 225 150
f 226 151 153
f 227 226 153
f 227 153 155
f 228 227 155
f 228 155 156
f 229 228 156
f 230 156 158
f 230 229 156
f 230 158 160
f 231 230 160
f 232 160 161
f 232 231 160
f 232 161 174
f 233 232 174
f 234 174 177
f 234 233 174
f 234 177 180
f 235 234 180
f 236 180 184
f 236 235 180
f 237 184 187
f 237 236 184
f 238 187 190
f 238 237 187
f 238 190 194
f 239 238 194
f 239 194 197
f 240 239 197
f 241 197 200
f 241 240 197
f 241 200 204
f 242 241 204
f 243 204 206
f 243 242 204
f 243 206 208
f 244 243 208
f 208 205 245
f 208 245 244
f 202 246 245
f 205 202 245
f 202 198 247
f 202 247 246
f 196 248 247
f 198 196 247
f 192 249 248
f 196 192 248
f 192 188 250
f 192 250 249
f 186 251 250
f 188 186 250
f 186 182 252
f 186 252 251
f 182 178 253
f 182 253 252
f 176 254 253
f 178 176 253
f 176 163 255
f 176 255 254
f 256 41 45
f 257 256 45
f 258 45 48
f 258 257 45
f 259 48 52
f 259 258 48
f 259 52 55
f 260 259 55
f 261 55 59
f 261 260 55
f 261 59 63
f 262 261 63
f 63 66 263
f 63 263 262
f 71 264 263
f 66 71 263
f 71 73 265
f 71 265 264
f 76 266 265
f 73 76 265
f 76 78 267
f 76 267 266
f 81 268 267
f 78 81 267
f 83 269 268
f 81 83 268
f 83 95 270
f 83 270 269
f 94 271 270
f 95 94 270
f 93 272 271
f 94 93 271
f 93 92 273
f 93 273 272
f 91 274 273
f 92 91 273
f 91 90 275
f 91 275 274
f 89 276 275
f 90 89 275
f 89 88 277
f 89 277 276
f 277 88 87
f 278 277 87
f 279 87 86
f 279 278 87
f 279 86 131
f 280 279 131
f 281 131 130
f 281 280 131
f 282 130 125
f 282 281 130
f 282 125 117
f 283 282 117
f 284 117 114
f 284 283 117
f 285 114 111
f 285 284 114
f 285 111 110
f 286 285 110
f 287 110 107
f 287 286 110
f 288 107 104
f 288 287 107
f 288 104 69
f 289 288 69
f 290 69 67
f 290 289 69
f 290 67 64
f 291 290 64
f 64 62 292
f 64 292 291
f 58 293 292
f 62 58 292
f 58 54 294
f 58 294 293
f 51 295 294
f 54 51 294
f 51 47 296
f 51 296 295
f 44 297 296
f 47 44 296
f 40 298 297
f 44 40 297
f 40 35 299
f 40 299 298
f 30 300 299
f 35 30 299
f 25 301 300
f 30 25 300
f 25 20 302
f 25 302 301
f 15 303 302
f 20 15 302
f 15 10 304
f 15 304 303
f 4 305 304
f 10 4 304
f 4 1 306
f 4 306 305
f 306 1 7
f 307 306 7
f 308 7 12
f 308 307 7
f 308 12 18
f 309 308 18
f 310 18 22
f 310 309 18
f 311 22 28
f 311 310 22
f 311 28 32
f 312 311 32
f 163 85 313
f 163 313 255
f 85 314 313
f 85 84 314
f 84 315 314
f 84 82 315
f 80 316 315
f 82 80 315
f 80 317 316
f 80 79 317
f 79 318 317
f 79 77 318
f 75 319 318
f 77 75 318
f 75 320 319
f 75 74 320
f 72 321 320
f 74 72 320
f 72 322 321
f 72 70 322
f 70 323 322
f 70 68 323
f 65 324 323
f 68 65 323
f 324 65 61
f 325 324 61
f 326 61 60
f 326 325 61
f 327 60 57
f 327 326 60
f 327 57 56
f 328 327 56
f 329 56 53
f 329 328 56
f 330 329 53
f 330 53 50
f 330 50 49
f 331 330 49
f 331 49 46
f 332 331 46
f 333 46 43
f 333 332 46
f 334 333 43
f 334 43 42
f 334 42 39
f 335 334 39
f 335 39 34
f 336 335 34
f 336 34 33
f 337 336 33
f 338 33 29
f 338 337 33
f 339 338 29
f 339 29 24
f 339 24 23
f 340 339 23
f 341 23 19
f 341 340 23
f 342 19 14
f 342 341 19
f 342 14 13
f 343 342 13
f 343 13 9
f 344 343 9
f 345 9 8
f 345 344 9
f 346 345 8
f 346 8 3
f 346 3 2
f 347 346 2
f 6 348 347
f 2 6 347
f 6 5 349
f 6 349 348
f 5 11 350
f 5 350 349
f 17 351 350
f 11 17 350
f 17 16 352
f 17 352 351
f 21 353 352
f 16 21 352
f 21 27 354
f 21 354 353
f 27 26 355
f 27 355 354
f 31 356 355
f 26 31 355
f 31 37 357
f 31 357 356
f 358 359 121
f 358 121 124
f 360 124 129
f 360 358 124
f 361 360 129
f 361 129 134
f 362 361 134
f 362 134 138
f 362 138 169
f 363 362 169
f 364 363 169
f 364 169 168
f 167 365 364
f 168 167 364
f 167 166 366
f 167 366 365
f 165 367 366
f 166 165 366
f 164 368 367
f 165 164 367
f 164 173 369
f 164 369 368
f 173 172 370
f 173 370 369
f 171 371 370
f 172 171 370
f 171 170 372
f 171 372 371
f 179 373 372
f 170 179 372
f 179 374 373
f 179 183 374
f 183 375 374
f 183 189 375
f 193 376 375
f 189 193 375
f 193 199 377
f 193 377 376
f 199 378 377
f 199 203 378
f 207 379 378
f 203 207 378
f 380 207 201
f 380 379 207
f 380 201 195
f 381 380 195
f 382 195 191
f 382 381 195
f 383 191 185
f 383 382 191
f 384 383 185
f 384 185 181
f 384 181 175
f 385 384 175
f 386 385 175
f 386 175 162
f 386 162 159
f 387 386 159
f 388 387 159
f 388 159 157
f 389 157 154
f 389 388 157
f 390 389 154
f 390 154 152
f 390 152 149
f 391 390 149
f 391 149 146
f 392 391 146
f 393 392 146
f 393 146 144
f 141 394 393
f 144 141 393
f 141 139 395
f 141 395 394
f 135 396 395
f 139 135 395
f 132 397 396
f 135 132 396
f 132 126 398
f 132 398 397
f 126 122 399
f 126 399 398
f 118 400 399
f 122 118 399
f 118 115 401
f 118 401 400
f 112 402 401
f 115 112 401
f 112 403 402
f 112 108 403
f 108 404 403
f 108 105 404
f 102 405 404
f 105 102 404
f 102 100 406
f 102 406 405
f 100 407 406
f 100 97 407
f 98 408 407
f 97 98 407
f 409 98 99
f 409 408 98
f 409 99 101
f 410 409 101
f 411 101 103
f 411 410 101
f 412 103 106
f 412 411 103
f 413 412 106
f 413 106 109
f 413 109 113
f 414 413 113
f 415 414 416
f 417 414 415
f 417 413 414
f 418 413 417
f 419 413 418
f 419 412 413
f 420 412 419
f 420 411 412
f 421 411 420
f 422 411 421
f 422 410 411
f 423 410 422
f 423 409 410
f 424 409 423
f 425 409 424
f 425 408 409
f 426 408 425
f 426 407 408
f 427 407 426
f 428 407 427
f 428 406 407
f 429 406 428
f 429 405 406
f 430 405 429
f 431 405 430
f 431 404 405
f 432 404 431
f 432 403 404
f 433 403 432
f 434 403 433
f 434 402 403
f 435 402 434
f 435 401 402
f 436 401 435
f 436 400 401
f 437 400 436
f 438 400 437
f 438 399 400
f 439 399 438
f 439 398 399
f 440 398 439
f 441 398 440
f 441 397 398
f 442 397 441
f 442 396 397
f 443 396 442
f 444 396 443
f 444 395 396
f 445 395 444
f 445 394 395
f 446 394 445
f 447 394 446
f 447 393 394
f 393 447 448
f 393 448 392
f 392 448 449
f 392 449 450
f 392 450 391
f 391 450 451
f 391 451 390
f 390 451 452
f 390 452 453
f 390 453 389
f 389 453 454
f 389 454 388
f 388 454 455
f 388 455 456
f 388 456 387
f 387 456 457
f 387 457 386
f 386 457 458
f 386 458 459
f 386 459 385
f 385 459 460
f 385 460 384
f 384 460 461
f 384 461 462
f 384 462 383
f 383 462 463
f 383 463 382
f 382 463 464
f 382 464 465
f 382 465 381
f 381 465 466
f 381 466 380
f 380 466 467
f 380 467 468
f 380 468 379
f 379 468 469
f 379 469 378
f 378 469 470
f 378 470 471
f 378 471 377
f 377 471 472
f 377 472 376
f 376 472 473
f 376 473 474
f 376 474 375
f 375 474 475
f 375 475 374
f 374 475 476
f 374 476 477
f 374 477 373
f 373 477 478
f 373 478 372
f 372 478 479
f 371 479 480
f 372 479 371
f 371 480 481
f 371 481 370
f 370 481 482
f 370 482 369
f 369 482 483
f 369 484 368
f 368 484 485
f 368 485 367
f 367 485 486
f 367 486 487
f 367 487 366
f 366 487 488
f 366 488 365
f 365 488 489
f 365 489 490
f 365 490 364
f 491 364 490
f 491 363 364
f 492 363 491
f 493 363 492
f 493 362 363
f 494 362 493
f 494 361 362
f 495 361 494
f 496 361 495
f 496 360 361
f 497 360 496
f 497 358 360
f 498 358 497
f 499 358 498
f 499 359 358
f 500 359 499
f 415 416 501
f 501 416 500
f 500 416 359
f 369 483 484
f 416 414 113
f 416 113 116
f 416 116 121
f 359 416 121
f 262 324 325
f 263 324 262
f 263 322 323
f 263 323 324
f 261 262 325
f 261 325 326
f 261 326 327
f 264 321 322
f 264 322 263
f 260 261 327
f 260 327 328
f 260 328 329
f 265 321 264
f 265 319 320
f 265 320 321
f 259 260 329
f 259 329 330
f 266 319 265
f 266 318 319
f 258 259 330
f 258 330 331
f 258 331 332
f 267 318 266
f 267 316 317
f 267 317 318
f 257 258 332
f 257 332 333
f 268 316 267
f 268 315 316
f 256 334 335
f 256 257 333
f 256 333 334
f 269 315 268
f 269 313 314
f 269 314 315
f 502 335 336
f 502 256 335
f 270 313 269
f 312 336 337
f 312 337 338
f 312 502 336
f 271 313 270
f 311 338 339
f 311 312 338
f 272 313 271
f 310 339 340
f 310 340 341
f 310 311 339
f 273 313 272
f 309 341 342
f 309 310 341
f 274 313 273
f 308 342 343
f 308 343 344
f 308 309 342
f 275 313 274
f 307 308 344
f 307 344 345
f 346 307 345
f 276 313 275
f 306 307 346
f 277 313 276
f 347 306 346
f 305 306 347
f 278 313 277
f 348 305 347
f 279 313 278
f 349 304 305
f 349 305 348
f 350 303 304
f 350 304 349
f 351 303 350
f 352 303 351
f 352 302 303
f 353 302 352
f 353 301 302
f 354 301 353
f 355 300 301
f 355 301 354
f 356 300 355
f 356 299 300
f 357 299 356
f 210 289 290
f 210 290 291
f 210 291 292
f 210 292 293
f 210 293 294
f 210 294 295
f 210 295 296
f 210 296 297
f 210 297 298
f 210 298 299
f 210 299 357
f 491 490 313
f 489 313 490
f 492 491 313
f 488 313 489
f 493 492 313
f 487 313 488
f 494 493 313
f 486 313 487
f 495 279 280
f 495 494 313
f 495 313 279
f 496 280 281
f 496 495 280
f 497 496 281
f 498 281 282
f 498 497 281
f 499 282 283
f 499 498 282
f 255 485 484
f 255 484 483
f 255 483 482
f 481 255 482
f 500 283 284
f 500 499 283
f 480 255 481
f 501 500 284
f 479 254 255
f 479 255 480
f 415 284 285
f 415 501 284
f 478 253 254
f 478 254 479
f 417 285 286
f 417 415 285
f 477 252 253
f 477 253 478
f 418 286 287
f 418 417 286
f 476 252 477
f 476 251 252
f 419 418 287
f 475 251 476
f 475 250 251
f 420 287 288
f 420 419 287
f 474 249 250
f 474 250 475
f 421 288 289
f 421 420 288
f 421 289 210
f 473 249 474
f 473 248 249
f 422 421 210
f 472 248 473
f 472 247 248
f 423 422 210
f 471 247 472
f 471 246 247
f 424 423 210
f 470 246 471
f 470 245 246
f 425 424 210
f 469 245 470
f 469 244 245
f 426 425 210
f 243 244 469
f 243 469 468
f 427 426 210
f 242 243 468
f 242 468 467
f 428 427 210
f 241 467 466
f 241 242 467
f 429 428 210
f 240 241 466
f 240 466 465
f 430 429 210
f 239 465 464
f 239 240 465
f 238 464 463
f 238 239 464
f 237 463 462
f 237 238 463
f 236 462 461
f 236 237 462
f 235 461 460
f 235 236 461
f 234 235 460
f 234 460 459
f 233 234 459
f 233 459 458
f 209 437 436
f 209 436 435
f 209 435 434
f 209 434 433
f 209 433 432
f 209 432 431
f 232 233 458
f 232 458 457
f 211 438 437
f 211 437 209
f 231 232 457
f 231 457 456
f 212 439 438
f 212 438 211
f 230 231 456
f 230 456 455
f 213 440 439
f 213 439 212
f 229 230 455
f 229 455 454
f 214 441 440
f 214 440 213
f 228 229 454
f 228 454 453
f 215 441 214
f 215 442 441
f 227 228 453
f 227 453 452
f 216 442 215
f 216 443 442
f 226 227 452
f 226 452 451
f 217 443 216
f 217 444 443
f 225 226 451
f 225 451 450
f 218 444 217
f 218 445 444
f 224 225 450
f 224 450 449
f 219 445 218
f 219 446 445
f 223 449 448
f 223 224 449
f 220 447 446
f 220 446 219
f 222 448 447
f 222 223 448
f 221 222 447
f 221 447 220
f 210 209 431
f 210 431 430
f 255 313 485
f 485 313 486
f 37 36 210
f 37 210 357
f 502 32 38
f 502 312 32
f 256 38 41
f 256 502 38

